<svg width="271" height="90" viewBox="0 0 271 90" fill="none" xmlns="http://www.w3.org/2000/svg">
<g id="Group_2">
<path id="Vector_6" d="M48.279 52.6968C47.7503 55.3699 46.8635 57.8558 45.5845 60.1373C44.3055 62.4189 42.6854 64.3939 40.7242 66.0625C38.763 67.7311 36.4778 69.0251 33.8516 69.9275C31.2253 70.8299 28.3262 71.3067 25.1201 71.3067C21.7264 71.3067 18.5032 70.7448 15.4506 69.6381C12.4151 68.5313 9.73765 66.9138 7.45246 64.7855C5.16727 62.6572 3.34252 60.0692 2.01233 57.0045C0.665093 53.9397 0 50.4152 0 46.4311V45.2562C0 41.3402 0.665093 37.8157 2.01233 34.6828C3.35958 31.55 5.16727 28.9109 7.45246 26.7485C9.73765 24.5862 12.398 22.9346 15.4506 21.7598C18.4862 20.585 21.7093 19.989 25.1201 19.989C28.1897 19.989 31.0377 20.4487 33.6469 21.3682C36.2561 22.2876 38.5754 23.5646 40.5707 25.2332C42.566 26.9018 44.2031 28.8768 45.4822 31.1584C46.7612 33.4399 47.6309 35.9257 48.0743 38.5989L40.4172 40.3696C40.2296 38.667 39.7521 37.0325 39.0018 35.432C38.2514 33.8315 37.2282 32.4353 35.9662 31.2265C34.6872 30.0176 33.1353 29.0641 31.3106 28.332C29.4858 27.6169 27.3541 27.2593 24.9325 27.2593C22.5109 27.2593 20.3791 27.702 18.3157 28.5874C16.2522 29.4727 14.4445 30.7157 12.8755 32.3162C11.3066 33.9166 10.0787 35.8236 9.19193 38.037C8.30514 40.2505 7.86175 42.6682 7.86175 45.2903V46.4651C7.86175 49.2064 8.30514 51.6752 9.19193 53.8546C10.0787 56.051 11.3066 57.8898 12.8755 59.3882C14.4445 60.8865 16.2692 62.0443 18.3668 62.8615C20.4644 63.6788 22.7155 64.0874 25.1371 64.0874C27.5587 64.0874 29.6734 63.7129 31.464 62.9637C33.2547 62.2145 34.8066 61.227 36.0685 60.0181C37.3476 58.8093 38.3537 57.4301 39.1041 55.8467C39.8545 54.2802 40.3661 52.6457 40.6219 50.943L48.279 52.7138V52.6968Z" fill="#F7F2E4"/>
<path id="Vector_7" d="M96.882 61.7038H95.7053C94.1364 64.9728 91.9535 67.3906 89.1908 68.957C86.4111 70.5234 83.4778 71.3067 80.4082 71.3067C77.3385 71.3067 74.2347 70.7618 71.4891 69.6891C68.7434 68.6165 66.3389 67.016 64.2754 64.8877C62.2119 62.7594 60.5918 60.1714 59.4151 57.1066C58.2384 54.0419 57.6415 50.4833 57.6415 46.4311V44.8646C57.6415 40.8804 58.2384 37.356 59.4151 34.2912C60.5918 31.2265 62.2119 28.6214 64.2754 26.5101C66.3389 24.3818 68.7434 22.7814 71.4891 21.6576C74.2347 20.5509 77.1509 19.989 80.2206 19.989C83.5631 19.989 86.5816 20.7212 89.2931 22.1854C92.0047 23.6497 94.1534 25.9312 95.7224 28.996H96.8991V21.3511H104.556V59.933C104.556 61.891 105.443 62.8786 107.199 62.8786H109.655V69.9275H104.454C102.237 69.9275 100.412 69.2124 99.0137 67.7652C97.6153 66.3349 96.8991 64.4961 96.8991 62.2826V61.7038H96.882ZM81.1926 64.0534C83.4778 64.0534 85.5925 63.6277 87.5196 62.7764C89.4466 61.9251 91.1008 60.7162 92.4651 59.1498C93.8294 57.5834 94.9208 55.7104 95.7053 53.514C96.4898 51.3347 96.882 48.8999 96.882 46.2097V45.0349C96.882 42.4299 96.4898 40.0291 95.7053 37.8327C94.9208 35.6533 93.8294 33.7634 92.414 32.197C90.9985 30.6305 89.3443 29.4046 87.4172 28.5193C85.4902 27.6339 83.4096 27.1912 81.1926 27.1912C78.9757 27.1912 76.8098 27.6169 74.9169 28.4682C73.0239 29.3195 71.3697 30.5114 69.9713 32.0437C68.5559 33.5761 67.4644 35.432 66.68 37.6284C65.8955 39.8248 65.5033 42.2085 65.5033 44.8306V46.397C65.5033 51.9476 66.9528 56.2723 69.869 59.3711C72.7852 62.4699 76.554 64.0193 81.1926 64.0193V64.0534Z" fill="#F7F2E4"/>
<path id="Vector_8" d="M119.632 21.3511H146.714V81.8801C146.714 84.0935 146.014 85.9323 144.599 87.3626C143.183 88.7928 141.376 89.5249 139.159 89.5249H117.279V82.476H136.413C138.187 82.476 139.056 81.4884 139.056 79.5304V28.4001H119.632V21.3511ZM135.919 6.86165C135.919 4.97172 136.584 3.35421 137.931 2.00912C139.278 0.664031 140.881 0 142.791 0C144.701 0 146.304 0.664031 147.651 2.00912C148.999 3.35421 149.664 4.97172 149.664 6.86165C149.664 8.75158 148.999 10.3691 147.651 11.7142C146.304 13.0593 144.684 13.7233 142.791 13.7233C140.898 13.7233 139.278 13.0593 137.931 11.7142C136.584 10.3691 135.919 8.76861 135.919 6.86165Z" fill="#F7F2E4"/>
<path id="Vector_9" d="M202.53 61.7038H201.353C199.784 64.9728 197.602 67.3906 194.839 68.957C192.059 70.5234 189.126 71.3067 186.056 71.3067C182.987 71.3067 179.883 70.7618 177.137 69.6891C174.392 68.6165 171.987 67.016 169.923 64.8877C167.86 62.7594 166.24 60.1714 165.063 57.1066C163.886 54.0419 163.29 50.4833 163.29 46.4311V44.8646C163.29 40.8804 163.886 37.356 165.063 34.2912C166.24 31.2265 167.86 28.6214 169.923 26.5101C171.987 24.3818 174.392 22.7814 177.137 21.6576C179.883 20.5509 182.799 19.989 185.869 19.989C189.211 19.989 192.23 20.7212 194.941 22.1854C197.653 23.6497 199.801 25.9312 201.37 28.996H202.547V21.3511H210.204V59.933C210.204 61.891 211.091 62.8786 212.848 62.8786H215.303V69.9275H210.102C207.885 69.9275 206.06 69.2124 204.662 67.7652C203.263 66.3349 202.547 64.4961 202.547 62.2826V61.7038H202.53ZM186.824 64.0534C189.109 64.0534 191.223 63.6277 193.151 62.7764C195.078 61.9251 196.732 60.7162 198.096 59.1498C199.46 57.5834 200.552 55.7104 201.336 53.514C202.121 51.3347 202.513 48.8999 202.513 46.2097V45.0349C202.513 42.4299 202.121 40.0291 201.336 37.8327C200.552 35.6533 199.46 33.7634 198.045 32.197C196.63 30.6305 194.975 29.4046 193.048 28.5193C191.121 27.6339 189.041 27.1912 186.824 27.1912C184.607 27.1912 182.441 27.6169 180.548 28.4682C178.655 29.3195 177.001 30.5114 175.602 32.0437C174.187 33.5761 173.095 35.432 172.311 37.6284C171.526 39.8248 171.134 42.2085 171.134 44.8306V46.397C171.134 51.9476 172.584 56.2723 175.5 59.3711C178.416 62.4699 182.185 64.0193 186.824 64.0193V64.0534Z" fill="#F7F2E4"/>
<path id="Vector_10" d="M225.297 74.6436H271V81.6925H225.297V74.6436Z" fill="#CC2200"/>
</g>
</svg>
