<svg width="262" height="70" viewBox="0 0 262 70" fill="none" xmlns="http://www.w3.org/2000/svg">
<g id="Group">
<path id="Vector" d="M0 21.3628H15.0156V9.01176C15.0156 6.79709 15.7152 4.95722 17.1314 3.5262C18.5306 2.09519 20.3563 1.36264 22.5746 1.36264H41.8047V8.4155H25.3217C23.5472 8.4155 22.6769 9.40358 22.6769 11.3627V21.3628H42.9992V28.4156H22.6769V69.9661H15.0156V28.4156H0V21.3628Z" fill="#F7F2E4"/>
<path id="Vector_2" d="M54.551 21.363H72.2113V27.8366H73.3887C74.6343 25.162 76.3918 23.1858 78.6953 21.9082C80.9818 20.6305 83.6095 20.0001 86.5444 20.0001C91.4586 20.0001 95.4172 21.6015 98.4203 24.8043C101.423 28.007 103.027 32.6748 103.232 38.8248L95.1783 40.0003C95.1783 35.4858 94.1034 32.2489 91.9364 30.2557C89.7693 28.2625 87.1245 27.2745 83.9849 27.2745C81.9544 27.2745 80.214 27.6663 78.7295 28.4499C77.262 29.2336 76.0335 30.3068 75.0438 31.6868C74.0712 33.0667 73.3375 34.668 72.8768 36.4909C72.4161 38.3137 72.1943 40.2728 72.1943 42.3683V62.9476H84.5651V70.0005H53.3565V62.9476H64.55V28.4499H54.5339V21.3971L54.551 21.363Z" fill="#F7F2E4"/>
<path id="Vector_3" d="M113.147 62.9135H130.227V28.4159H114.921V21.363H137.888V62.9135H153.791V69.9664H113.164V62.9135H113.147ZM127.087 6.86546C127.087 4.97448 127.753 3.35607 129.101 2.01023C130.449 0.664399 132.052 0 133.964 0C135.875 0 137.479 0.664399 138.827 2.01023C140.175 3.35607 140.84 4.97448 140.84 6.86546C140.84 8.75644 140.175 10.3749 138.827 11.7207C137.479 13.0665 135.858 13.7309 133.964 13.7309C132.07 13.7309 130.449 13.0665 129.101 11.7207C127.753 10.3749 127.087 8.77348 127.087 6.86546Z" fill="#F7F2E4"/>
<path id="Vector_4" d="M176.86 41.5509H178.533L197.08 21.3634H206.499V21.9426L186.279 44.1914V45.9632L208.854 69.3875V69.9838H199.435L178.72 48.6208H176.86V69.9838H169.199V1.38027H176.86V41.5509Z" fill="#F7F2E4"/>
<path id="Vector_5" d="M221.224 62.9135H238.304V28.4159H222.999V21.363H245.966V62.9135H261.869V69.9664H221.241V62.9135H221.224ZM235.165 6.86546C235.165 4.97448 235.83 3.35607 237.178 2.01023C238.526 0.664399 240.13 0 242.041 0C243.952 0 245.556 0.664399 246.904 2.01023C248.252 3.35607 248.918 4.97448 248.918 6.86546C248.918 8.75644 248.252 10.3749 246.904 11.7207C245.556 13.0665 243.935 13.7309 242.041 13.7309C240.147 13.7309 238.526 13.0665 237.178 11.7207C235.83 10.3749 235.165 8.77348 235.165 6.86546Z" fill="#F7F2E4"/>
</g>
</svg>
