<svg width="15" height="16" viewBox="0 0 15 16" fill="none" xmlns="http://www.w3.org/2000/svg">
<g id="OBJECTS_5">
<g clip-path="url(#clip0_264_2376)">
<path id="Vector_238" d="M7.937 13.3704C7.94277 13.3048 7.95575 13.2686 7.97594 13.2867C7.98315 13.298 7.9846 13.2867 7.98748 13.2844C7.99181 13.2844 7.99613 13.2844 8.0019 13.2958C8.01344 13.3161 8.02786 13.3636 8.04661 13.4474C7.97306 13.126 7.97738 13.1102 7.93556 12.8318C7.98748 13.0287 7.98892 12.902 7.99325 12.8477C7.94277 12.7617 7.92835 12.7798 7.90095 12.8001C7.91104 12.8567 7.91681 12.902 7.92114 12.9382C7.92258 12.9563 7.92402 12.9721 7.92402 12.9857L7.92402 13.0061C7.92402 13.0061 7.92258 13.0061 7.92114 13.0061C7.90239 13.0061 7.86201 12.8997 7.83749 12.8454C7.81009 12.7888 7.79567 12.7843 7.78125 12.9291C7.79856 12.9948 7.82307 13.1124 7.85192 13.212C7.88076 13.3116 7.91681 13.3931 7.937 13.3682L7.937 13.3704Z" fill="#CC2200"/>
<path id="Vector_239" d="M8.52252 14.0439L8.49368 13.9126L8.44176 14.5553C8.43743 14.3516 8.47349 13.9488 8.52252 14.0439Z" fill="#CC2200"/>
<path id="Vector_240" d="M8.76186 12.4212C8.8455 12.5232 8.95943 12.3284 9.04452 12.3918C8.85271 12.274 9.10221 12.0112 9.13394 11.8005L9.0128 11.6216C8.85416 11.7394 8.76618 12.2536 8.64648 12.6591L8.7633 12.4212L8.76186 12.4212Z" fill="#CC2200"/>
<path id="Vector_241" d="M8.96667 12.122L8.91043 11.9321C8.90466 12.0564 8.84986 12.3141 8.96667 12.122Z" fill="#CC2200"/>
<path id="Vector_242" d="M8.38371 12.0658C8.28564 12.3838 8.49764 11.9101 8.4414 12.2575C8.44572 12.1312 8.47168 12.0003 8.38371 12.0658Z" fill="#CC2200"/>
<path id="Vector_243" d="M9.05074 10.915C9.00747 11.1572 8.96277 11.3971 8.92383 11.6392L9.06516 11.4039L9.05074 10.915Z" fill="#CC2200"/>
<path id="Vector_244" d="M9.36617 11.1006C9.34021 11.1866 9.24647 11.2863 9.23493 11.1255C9.41665 10.9692 9.3056 10.7041 9.46857 10.5546L9.45126 10.8015C9.57817 10.8627 9.46712 10.2714 9.67191 10.4436C9.61567 10.0472 9.4253 10.5206 9.43972 10.0698C9.36617 10.4481 9.2407 10.6724 9.11523 10.942C9.18446 10.8876 9.1859 10.8446 9.25801 10.7517C9.19888 10.9669 9.18157 11.2976 9.12389 11.5536C9.29983 11.5174 9.22772 11.2478 9.36761 11.0983L9.36617 11.1006Z" fill="#CC2200"/>
<path id="Vector_245" d="M9.72114 10.0734C9.80334 9.86067 9.9216 9.52573 9.78748 9.33789C9.59855 9.4782 9.71393 9.62983 9.74566 9.78825C9.69806 9.83578 9.61442 10.0485 9.5625 9.89235C9.60721 9.88783 9.63028 10.1277 9.72114 10.0757L9.72114 10.0734Z" fill="#CC2200"/>
<path id="Vector_246" d="M10.0379 9.23278L9.95717 8.95703L9.94419 9.07908L9.8418 9.00676C9.8591 9.04518 10.012 9.27572 9.92689 9.48366C10.0408 9.43393 9.96438 9.31866 10.0379 9.23278Z" fill="#CC2200"/>
<path id="Vector_247" d="M9.38033 8.59922C9.50147 8.50408 9.49282 8.38175 9.51734 8.17334C9.44234 8.42706 9.31832 8.77139 9.35004 8.89145L9.33274 8.85068C9.33274 8.85068 9.32408 9.14064 9.36735 9.38303C9.35581 9.05456 9.65146 8.73514 9.38177 8.59696L9.38033 8.59922Z" fill="#CC2200"/>
<path id="Vector_249" d="M10.243 8.5332L10.0801 8.8242L10.1507 8.77909L10.243 8.5332Z" fill="#CC2200"/>
<path id="Vector_250" d="M9.69058 8.56957C9.8074 8.31384 9.5305 8.62389 9.62424 8.37042C9.63434 8.28668 9.49157 8.75062 9.55214 8.82757C9.59973 8.78004 9.56656 8.49715 9.69058 8.56957Z" fill="#CC2200"/>
<path id="Vector_252" d="M10.6542 7.71991L10.6037 7.59985C10.7609 7.39823 10.807 6.95649 11.0335 6.92704C10.9296 6.88173 10.8993 6.63708 10.7811 6.83643C10.8128 6.91798 10.7796 6.99727 10.8388 7.04031C10.7825 7.1196 10.7277 7.03578 10.6772 7.07655C10.6845 7.31668 10.5273 7.52056 10.5431 7.72218C10.5532 7.64289 10.5763 7.64062 10.6037 7.60211C10.6152 8.00308 10.2936 7.76522 10.4523 8.0869C10.4277 7.92606 10.6325 7.88302 10.6542 7.72444L10.6542 7.71991Z" fill="#CC2200"/>
<path id="Vector_253" d="M10.1632 7.27564L10.0449 7.48384C9.97859 7.3209 10.1516 7.19417 10.081 7.07422C10.0204 7.03348 9.90215 7.24169 9.89639 7.11948C10.1069 7.35937 9.7839 7.45216 10.0781 7.56532C9.99157 7.89573 9.90648 7.53137 9.79687 7.86631L9.88196 8.06547C9.95696 7.65358 10.0824 7.68526 10.1632 7.2779L10.1632 7.27564Z" fill="#CC2200"/>
<path id="Vector_254" d="M10.556 6.41982L10.6728 6.38356L10.5459 6.33824C10.7449 5.80793 11.2843 5.96657 11.3593 5.61076C11.3939 5.09179 11.7501 4.98074 11.9087 4.59547C11.913 4.31672 11.7746 4.70425 11.7155 4.66346C11.577 4.41417 11.8856 4.59321 11.7948 4.34845C11.6881 4.17848 11.4818 4.57054 11.3333 4.6476C11.2843 4.8085 11.3218 4.8493 11.3708 4.97168C11.2871 4.92862 11.2006 5.04873 11.1155 5.00794C11.0737 5.40907 10.8242 5.36827 10.7968 5.7762C10.6627 5.76714 10.8761 5.53598 10.8199 5.61756L10.7507 5.78073L10.7737 5.78073C10.7737 6.10254 10.5098 6.41529 10.3887 6.49688C10.468 6.41756 10.579 6.41982 10.5531 6.58299L10.3973 6.58299L10.4406 7.02945C10.4233 6.70311 10.7406 6.66911 10.556 6.41982Z" fill="#CC2200"/>
<path id="Vector_255" d="M10.2263 6.53711C10.0259 6.82453 10.4066 6.65932 10.2033 6.98973C10.2509 6.85168 10.3028 6.7159 10.3533 6.58011L10.2249 6.53711L10.2263 6.53711Z" fill="#CC2200"/>
<path id="Vector_256" d="M11.1973 5.20868L11.3458 5.13198C11.1554 5.04851 11.2362 5.529 11.1973 5.20868Z" fill="#CC2200"/>
<path id="Vector_257" d="M11.4766 4.61133L11.5703 4.85559L11.566 4.61585L11.4766 4.61133Z" fill="#CC2200"/>
<path id="Vector_258" d="M11.8984 4.27555C11.8898 4.07426 11.7629 4.14437 11.7109 4.30269C11.7787 4.18508 11.8681 4.19413 11.8984 4.27555Z" fill="#CC2200"/>
<path id="Vector_259" d="M12.5932 3.75896C12.4562 4.0071 12.7475 3.583 12.7634 3.91686C12.7273 3.81084 12.7244 3.58751 12.5932 3.75896Z" fill="#CC2200"/>
<path id="Vector_260" d="M13.3377 3.40556C13.3103 3.52298 13.2685 3.52523 13.2324 3.49362C13.2714 3.43717 13.3074 3.39879 13.3377 3.40556Z" fill="#CC2200"/>
<path id="Vector_261" d="M11.304 6.07471C11.291 6.10604 11.2751 6.13962 11.2578 6.16424C11.2737 6.1329 11.2881 6.1038 11.304 6.07471Z" fill="#CC2200"/>
<path id="Vector_262" d="M11.335 6.01611L11.3047 6.07465C11.3148 6.04988 11.3249 6.03187 11.335 6.01611Z" fill="#CC2200"/>
<path id="Vector_263" d="M12.566 4.40283C12.5588 4.40283 12.5516 4.40726 12.543 4.40726L12.566 4.40283Z" fill="#CC2200"/>
<path id="Vector_264" d="M8.82274 13.1284C8.81409 13.2029 8.80255 13.2616 8.79102 13.3023C8.80111 13.2436 8.81121 13.1871 8.8213 13.1284L8.82274 13.1284Z" fill="#CC2200"/>
<path id="Vector_265" d="M8.57889 13.1021C8.56158 12.9394 8.62937 12.9371 8.71301 12.8919C8.79666 12.8444 8.89184 12.7789 8.90915 12.5483C8.88607 12.7314 8.86011 12.9032 8.82262 13.1292C8.7159 13.1948 8.71013 13.1202 8.70003 13.075C8.69138 13.0252 8.67984 13.0049 8.57745 13.1043L8.57889 13.1021Z" fill="#CC2200"/>
<path id="Vector_266" d="M9.37305 9.56605C9.37305 9.56605 9.37305 9.55498 9.37305 9.54834C9.37593 9.51958 9.37593 9.53728 9.37305 9.56605Z" fill="#CC2200"/>
<path id="Vector_267" d="M2.5606 9.50281L2.53175 9.55935C2.50002 9.48698 2.46974 9.41235 2.43945 9.33545C2.47839 9.39199 2.52021 9.44627 2.5606 9.50055L2.5606 9.50281Z" fill="#CC2200"/>
<path id="Vector_268" d="M2.53039 9.62997C2.58664 9.75004 2.64144 9.87463 2.70057 9.99243C2.25205 9.52124 1.82084 8.99794 1.41992 8.41122L1.50357 8.39536C1.5252 8.33646 1.76172 8.70798 2.01554 9.04778C2.26648 9.38985 2.52895 9.7002 2.53183 9.62997L2.53039 9.62997Z" fill="#CC2200"/>
<path id="Vector_269" d="M2.63477 9.60958C2.86984 9.50774 2.80638 9.93094 3.03857 9.92415C2.88426 9.93094 2.75158 9.98073 2.67803 9.80647L2.63477 9.60958Z" fill="#CC2200"/>
<path id="Vector_270" d="M3.27734 9.59619C3.32638 9.71832 3.45329 9.6957 3.47781 9.7726C3.37397 9.94449 3.32638 9.68213 3.27734 9.59619Z" stroke="#CC2200" stroke-linecap="round" stroke-linejoin="round"/>
<path id="Vector_271" d="M3.76782 9.04102C3.77935 9.04765 3.79089 9.05872 3.79954 9.06978C3.78224 9.06978 3.76637 9.06978 3.75195 9.07421L3.76637 9.04102L3.76782 9.04102Z" fill="#CC2200"/>
<path id="Vector_272" d="M3.75262 9.07471L3.71513 9.15985C3.70647 9.10383 3.72378 9.08367 3.75262 9.07471Z" fill="#CC2200"/>
<path id="Vector_273" d="M3.80078 9.07021C3.83972 9.07021 3.88587 9.07247 3.9176 9.05438L3.89308 9.01367C3.94211 9.0295 4.04018 9.02498 4.04018 9.09509C3.96807 9.00236 3.94211 9.06343 3.8902 9.18556L4.01278 9.32804C3.87289 9.6017 3.9075 9.20365 3.80078 9.07474L3.80078 9.07021Z" fill="#CC2200"/>
<path id="Vector_274" d="M4.23613 9.38935L4.03711 9.43446C4.06307 9.23595 4.1871 9.34197 4.23613 9.38935Z" stroke="#CC2200" stroke-linecap="round" stroke-linejoin="round"/>
<path id="Vector_275" d="M4.3629 9.77044C4.31242 9.79081 4.18551 9.65276 4.23743 9.80439C4.20282 9.81797 4.17974 9.78855 4.15234 9.76139C4.25762 9.80213 4.24897 9.52376 4.3629 9.76818L4.3629 9.77044Z" fill="#CC2200"/>
<path id="Vector_276" d="M4.1512 9.76093C4.13822 9.7565 4.12524 9.74986 4.10938 9.73438C4.12524 9.7388 4.13822 9.74986 4.1512 9.76093Z" fill="#CC2200"/>
<path id="Vector_277" d="M2.45913 9.02734C2.4649 9.06778 2.45336 9.08575 2.4375 9.09698L2.45913 9.02734Z" stroke="#CC2200" stroke-linecap="round" stroke-linejoin="round"/>
<path id="Vector_278" d="M4.57227 10.2031L4.62418 10.2506C4.60976 10.2371 4.5939 10.2303 4.57948 10.2212L4.57227 10.2031Z" fill="#CC2200"/>
<path id="Vector_279" d="M0 6.27637C0.085088 6.62305 0.170176 6.96973 0.439862 7.31868C0.562446 7.16007 0.556677 7.44557 0.699452 7.30962C0.64465 7.20765 0.669166 7.25297 0.736948 7.36627C0.809057 7.47503 0.918662 7.66083 1.04269 7.82624C1.28497 8.17066 1.5561 8.46296 1.48543 8.28396L1.37871 8.27716L1.55177 8.18199C1.63398 8.39498 1.70464 8.78245 1.84886 8.77566C1.84309 8.82097 1.58639 8.48335 1.35275 8.10948C1.23305 7.92821 1.12489 7.72881 1.0398 7.59286C0.959042 7.4501 0.905682 7.364 0.905682 7.39119C0.941736 7.22351 1.2619 7.74014 1.62821 8.20691C1.99164 8.68275 2.39112 9.12687 2.43727 9.09288L2.39256 9.2379C2.64638 9.33307 2.85405 9.28322 3.05451 9.36479L3.02279 9.56192C2.92616 9.38292 2.84684 9.45543 2.69541 9.38518C2.91607 9.59365 2.91462 9.72733 3.09057 9.87009C3.17277 9.65709 2.99394 9.62537 3.24776 9.72054C3.27084 9.87009 3.03721 9.95619 3.242 10.1035C3.44678 10.3867 3.52466 10.031 3.72945 10.2009L3.62705 9.99471C3.70205 10.0559 3.8578 10.1352 3.88376 10.3187C3.80588 10.2258 3.55062 10.1443 3.47274 10.3595C3.57514 10.3958 3.73378 10.6518 3.81165 10.713L3.70926 10.8195C3.7381 11.037 3.86646 10.8671 3.9227 11.0914C4.05249 11.0959 3.94289 10.8195 4.01932 10.8082C4.01932 10.8784 4.18229 11.1299 4.28468 11.0891C4.35247 10.7289 4.02221 10.9849 4.015 10.5657L4.17364 10.7832C4.40006 10.5702 3.8852 10.5295 4.03663 10.3301C4.28757 10.1261 4.20104 10.8943 4.47649 10.5884C4.42025 10.4366 4.1621 10.1941 4.23709 10.1103C4.28613 10.3119 4.43323 10.1465 4.576 10.219L4.67984 10.5023C4.78079 10.4592 4.72887 10.4116 4.70003 10.3006C4.86299 10.6858 5.33026 10.7968 5.58408 11.3044C5.79608 11.4245 5.65619 11.1843 5.78454 11.1458C5.82204 11.429 6.05567 11.4177 6.16383 11.5151C6.19123 11.5559 6.3167 11.4177 6.31237 11.3112L5.9951 11.1956C6.04413 11.105 6.06144 10.9011 5.95472 10.8422C5.89414 11.2749 5.64609 10.287 5.48313 10.6949L5.55235 10.5045L5.16152 10.3437L5.16152 10.3776C5.18604 10.3142 4.8255 10.2621 4.6683 10.0151C4.74329 10.0015 5.03317 10.3459 4.92068 9.97432C5.09807 9.98338 5.28988 10.3709 5.57831 10.5091L5.57254 10.3369C5.90857 10.3822 6.19267 10.9328 6.51716 11.1571L6.36285 11.2546C6.44794 11.4154 6.53591 11.6805 6.69311 11.6216C6.55754 11.5129 6.66138 11.4743 6.71185 11.4177C6.92674 11.4811 7.15027 11.8233 7.4214 11.9887C7.4214 11.9887 7.39544 12.0136 7.39544 12.0499C7.49495 12.0952 7.59446 12.1428 7.69397 12.1926C7.77041 12.2878 7.72137 12.2833 7.71849 12.3399C7.70695 12.3875 7.69397 12.4487 7.68532 12.5212C7.70118 12.5031 7.71705 12.5257 7.73147 12.3988C7.73147 12.3852 7.73147 12.3716 7.72714 12.3807C7.75454 12.2787 7.75022 12.2923 7.74877 12.3218C7.74589 12.3512 7.74733 12.3966 7.75743 12.3286C7.74589 12.4283 7.73724 12.4985 7.73724 12.5778C7.73579 12.6549 7.74156 12.7432 7.73435 12.8497C7.76608 12.8362 7.76464 12.7319 7.76175 12.6277C7.75887 12.5235 7.75743 12.4192 7.76031 12.3694C7.77618 12.5189 7.80646 12.7455 7.86992 12.8679C7.8454 12.7002 7.818 12.7093 7.79781 12.5303C7.81079 12.5824 7.82088 12.5824 7.81223 12.5189C7.80069 12.4668 7.7906 12.4192 7.78194 12.3739C7.79781 12.4623 7.81944 12.5371 7.83819 12.5846C7.85694 12.6096 7.8627 12.5348 7.84828 12.4441L7.82377 12.3784L7.83242 12.3603C7.86271 12.4374 7.89299 12.5167 7.92183 12.6005C7.90309 12.5189 8.00115 12.6549 7.92472 12.4849L7.91462 12.4849C7.90597 12.4509 7.89732 12.4215 7.88866 12.3943C7.92183 12.4577 7.95356 12.5303 7.9824 12.6096C8.01125 12.6164 7.98096 12.4963 7.9377 12.4079C7.91607 12.3626 7.89299 12.3218 7.87424 12.2969C7.86559 12.2833 7.85838 12.2719 7.85405 12.2651L7.85117 12.2606C7.85117 12.2606 7.85549 12.238 7.85694 12.2289C7.86271 12.204 7.86847 12.1813 7.87713 12.1564C7.92616 12.1632 7.94347 12.2108 7.94491 12.281C7.94202 12.3286 7.95068 12.3263 7.95356 12.3399C7.95789 12.3512 7.95933 12.3648 7.96221 12.3784C7.97375 12.4351 7.98673 12.5121 8.07759 12.6639C8.11941 12.6639 8.17854 12.5982 8.12951 12.5189C8.07038 12.4759 8.06172 12.5031 8.05451 12.5325C8.03432 12.4759 8.03144 12.4419 8.03577 12.4124C8.03577 12.4056 8.03865 12.3988 8.04153 12.392L8.05596 12.3467C8.07182 12.2991 8.08624 12.2493 8.10066 12.2017C8.15979 12.0114 8.2045 11.8301 8.13527 11.6601L7.99683 11.8686C8.05163 11.5559 8.33862 11.5242 8.23911 11.3384L8.39487 11.7191C8.36891 11.3497 8.49726 10.9804 8.4987 10.6473C8.37467 10.5499 8.38477 11.0506 8.36602 11.0121L8.31266 10.815C8.51312 10.4343 8.42515 10.7447 8.65446 10.2802L8.57225 10.2122C8.75252 10.1352 8.65157 9.48488 8.8203 9.83157L8.72512 9.93127L8.82896 9.99698C8.86646 9.77945 8.90828 9.56646 8.9501 9.35119C9.0049 9.46902 9.07701 9.16539 9.14912 9.32174L9.13326 9.03397C9.30632 9.0521 9.17075 9.56872 9.2717 9.67748C9.33949 9.7228 9.364 9.61404 9.37121 9.55739C9.39285 9.89954 9.10297 9.82703 9.01932 10.0876L9.0698 10.287L8.94722 10.185C8.93712 10.3119 8.99192 10.466 9.02942 10.5408C8.77992 10.6699 8.90539 11.1027 8.75541 11.4653C8.77416 11.0869 8.57514 11.5899 8.55783 11.5129C8.50303 11.6941 8.60975 12.2878 8.41506 12.3422C8.32564 12.4079 8.38189 12.0589 8.2867 12.2946C8.25786 12.4736 8.29824 12.6209 8.38621 12.5574C8.35881 12.8429 8.26507 13.0786 8.21171 13.3369C8.19585 13.2644 8.17998 13.1964 8.16268 13.1307C8.12085 13.1375 8.11508 13.2146 8.1223 13.3437C8.13095 13.4706 8.1497 13.6473 8.16844 13.8037C8.14249 13.7448 8.15547 13.8173 8.13095 13.6723C8.10643 13.6451 8.09345 13.6519 8.08768 13.6859C8.0848 13.7017 8.08336 13.7266 8.08336 13.7561L8.08336 13.8037C8.08336 13.8218 8.08191 13.8196 8.08047 13.8286C8.06317 13.926 8.04153 14.1096 7.89587 13.9057C7.92616 14.1844 8.05451 14.3566 8.10643 14.3067L8.1396 14.6239C8.17998 14.6761 8.2218 14.7259 8.26363 14.7758C8.2694 14.7758 8.27805 14.803 8.28093 14.7848L8.28815 14.7463L8.30257 14.6693L8.33141 14.5107C8.35016 14.4042 8.36602 14.2931 8.38044 14.1866C8.40785 13.9691 8.43092 13.7584 8.43669 13.5703C8.45111 13.6723 8.46409 13.781 8.47563 13.8966C8.58235 13.8966 8.56504 13.7516 8.54341 13.6405C8.52466 13.5227 8.4987 13.4343 8.62561 13.4185C8.63571 13.1466 8.52754 13.4842 8.51601 13.2576C8.55062 13.2123 8.59965 13.2871 8.65013 13.346C8.70061 13.4072 8.74964 13.4479 8.79146 13.3029C8.73378 13.6224 8.66888 13.9668 8.59965 14.3203C8.56504 14.4971 8.52899 14.6761 8.49438 14.8551L8.44101 15.1247L8.41361 15.2607L8.39919 15.3286C8.39919 15.3286 8.39487 15.3536 8.39198 15.3604L8.379 15.3604C8.06894 14.991 7.73868 14.6104 7.41275 14.2795C7.39112 14.309 7.42717 14.3656 7.46322 14.4223C7.42573 14.4313 7.36083 14.3883 7.27574 14.3067C7.23392 14.2659 7.18633 14.2183 7.13585 14.1617C7.08538 14.1096 7.02192 14.0416 6.98587 13.9986C6.81569 13.7946 6.60513 13.5431 6.40035 13.2961C5.98212 12.8112 5.55812 12.3898 5.43842 12.6368C5.43409 12.5325 5.56389 12.528 5.43121 12.4283C5.40669 12.4555 5.35622 12.4781 5.3591 12.5824C5.13124 12.0114 4.58177 11.9524 4.25296 11.4154C4.22988 11.5129 4.12605 11.4834 4.10153 11.5469C4.03952 11.2206 3.72801 11.2319 3.64436 10.9962L3.64725 11.1367C3.51457 11.0121 3.38044 10.8897 3.24921 10.7583C3.22325 10.7832 3.27661 10.8376 3.30257 10.8829C3.19729 10.8444 3.22325 10.7153 3.24921 10.6201C3.16123 10.636 3.0747 10.6496 2.98673 10.6609C2.80358 10.2236 2.50361 9.96979 2.18921 9.69108C1.87626 9.41464 1.54312 9.10874 1.34266 8.61478C1.17537 8.64197 1.07009 8.59438 0.928757 8.39952L0.964811 8.5468C0.752812 8.4471 1.00375 8.46523 0.853764 8.3338C0.7182 8.29075 0.686472 8.50148 0.843669 8.60118C0.878281 8.75526 0.80473 8.7394 0.734064 8.69408C0.320162 7.97806 0.0360542 7.13061 0 6.27637Z" fill="#CC2200"/>
<path id="Vector_280" d="M14.8522 1.98059C14.7729 1.94887 14.9921 1.72677 14.8133 1.67238C14.5724 1.69504 14.3402 1.9398 14.1167 2.22535C13.8917 2.5109 13.6754 2.83271 13.423 3.00948C13.2572 3.05481 13.2283 3.09107 13.1043 3.17945C13.1173 3.20438 13.1375 3.23384 13.1591 3.25424C13.0538 3.40608 12.9284 3.71203 12.787 3.81628C12.7798 3.89333 12.8375 4.03157 12.8692 3.91599C12.7942 4.2582 12.4842 4.16981 12.4654 4.40097C12.5837 4.33752 12.4741 4.62533 12.5938 4.52335C12.4625 4.81343 12.1957 4.43723 12.0501 4.62307C12.0659 4.66386 12.0804 4.70465 12.1107 4.66839C11.8626 4.76584 11.8092 5.51825 11.5958 5.31428L11.6319 5.51371C11.5136 5.54997 11.479 5.46839 11.3665 5.62703C11.3434 5.78793 11.4444 5.70635 11.4545 5.78793C11.3492 5.74941 11.2353 6.11881 11.0535 6.146C10.9194 6.01229 11.3463 6.06215 11.2973 5.78567C11.2742 5.75167 11.2569 5.76527 11.2396 5.79246C11.6304 5.03326 12.2592 4.87916 12.4813 4.17208C12.637 4.15395 12.6096 3.94772 12.5592 3.78001C12.4625 3.83441 12.2159 4.03837 12.3832 4.26726L12.1741 4.31486C12.1453 4.39871 11.9722 4.17661 11.9275 4.17208C12.0169 4.06103 11.9304 3.68936 11.7717 3.79815C11.939 3.41061 12.0775 4.37831 12.1972 4.00438L12.0977 3.79815C12.1323 3.94319 12.3327 3.74602 12.3457 3.59191L12.2996 3.60098C12.8 2.84631 13.3913 1.74264 13.9725 0.947175C14.1672 1.10128 14.2552 0.933577 14.3417 0.750009C14.4297 0.57324 14.5148 0.376074 14.6748 0.518849C14.7167 0.378341 14.4974 0.432731 14.6085 0.233299C14.6647 0.133583 14.7253 0.265027 14.7368 0.308086C14.7513 0.274092 14.7671 0.240098 14.783 0.203838C14.9085 0.43953 14.982 0.702417 14.9964 0.994767C15.0094 1.28712 14.9633 1.60893 14.8508 1.98059L14.8522 1.98059Z" fill="#CC2200"/>
</g>
<rect x="0.5" y="0.5" width="14" height="14.3605" stroke="#CC2200"/>
</g>
<defs>
<clipPath id="clip0_264_2376">
<rect width="15" height="15.3605" fill="white"/>
</clipPath>
</defs>
</svg>
