<svg width="261" height="70" viewBox="0 0 261 70" fill="none" xmlns="http://www.w3.org/2000/svg">
<g id="Group">
<path id="Vector" d="M0 21.3369H14.9658V9.00116C14.9658 6.78924 15.6631 4.95165 17.0746 3.52241C18.4691 2.09317 20.2889 1.36153 22.4997 1.36153H41.6661V8.40565H25.2378C23.4691 8.40565 22.6017 9.3925 22.6017 11.3492V21.3369H42.8566V28.381H22.6017V69.88H14.9658V28.381H0V21.3369Z" fill="#F7F2E4"/>
<path id="Vector_2" d="M54.3694 21.3365H71.9712V27.8021H73.1447C74.3862 25.1308 76.1379 23.1571 78.4337 21.881C80.7126 20.6049 83.3316 19.9753 86.2568 19.9753C91.1547 19.9753 95.1002 21.5747 98.0934 24.7735C101.087 27.9723 102.685 32.6343 102.889 38.7767L94.8621 39.9507C94.8621 35.4418 93.7907 32.209 91.6309 30.2182C89.471 28.2275 86.835 27.2407 83.7058 27.2407C81.682 27.2407 79.9473 27.632 78.4678 28.4147C77.0052 29.1974 75.7807 30.2693 74.7943 31.6475C73.825 33.0257 73.0937 34.6251 72.6345 36.4456C72.1753 38.2662 71.9542 40.2229 71.9542 42.3157V62.8696H84.284V69.9137H53.179V62.8696H64.3353V28.4147H54.3524V21.3706L54.3694 21.3365Z" fill="#F7F2E4"/>
<path id="Vector_3" d="M112.77 62.8355H129.793V28.3806H114.538V21.3365H137.429V62.8355H153.279V69.8797H112.787V62.8355H112.77ZM126.664 6.85695C126.664 4.96831 127.327 3.35191 128.671 2.00774C130.014 0.663576 131.613 0 133.518 0C135.423 0 137.021 0.663576 138.365 2.00774C139.708 3.35191 140.371 4.96831 140.371 6.85695C140.371 8.74559 139.708 10.362 138.365 11.7062C137.021 13.0503 135.406 13.7139 133.518 13.7139C131.63 13.7139 130.014 13.0503 128.671 11.7062C127.327 10.362 126.664 8.76261 126.664 6.85695Z" fill="#F7F2E4"/>
<path id="Vector_4" d="M176.273 41.499H177.939L196.425 21.3365H205.813V21.915L185.66 44.1363V45.9058L208.16 69.3011V69.8966H198.772L178.126 48.5601H176.273V69.8966H168.637V1.37815H176.273V41.499Z" fill="#F7F2E4"/>
<path id="Vector_5" d="M220.49 62.8355H237.514V28.3806H222.259V21.3365H245.15V62.8355H261V69.8797H220.507V62.8355H220.49ZM234.385 6.85695C234.385 4.96831 235.048 3.35191 236.391 2.00774C237.735 0.663576 239.334 0 241.238 0C243.143 0 244.742 0.663576 246.085 2.00774C247.429 3.35191 248.092 4.96831 248.092 6.85695C248.092 8.74559 247.429 10.362 246.085 11.7062C244.742 13.0503 243.126 13.7139 241.238 13.7139C239.351 13.7139 237.735 13.0503 236.391 11.7062C235.048 10.362 234.385 8.76261 234.385 6.85695Z" fill="#F7F2E4"/>
</g>
</svg>
