<svg width="938" height="183" viewBox="0 0 938 183" fill="none" xmlns="http://www.w3.org/2000/svg">
<g id="Group">
<path id="Vector" d="M119.053 129.957C119.053 136.859 114.967 140.315 106.805 140.315C98.6425 140.315 94.5561 146.849 94.5561 159.928C94.5561 173.007 90.9977 179.811 83.902 179.811C76.8064 179.811 73.248 173.179 73.248 159.928C73.248 146.676 61.084 140.315 36.756 140.315C12.428 140.315 0 136.869 0 129.957C0 127.959 1.2882 124.19 3.8646 118.65C6.441 113.109 9.86214 106.489 14.1174 98.7667C18.3833 91.0447 23.1771 82.8258 28.4988 74.1101C33.8206 65.3945 39.2901 56.8624 44.8759 48.5031C50.4722 40.1547 55.8784 32.519 61.1262 25.6177C66.3635 18.7165 70.9778 13.176 74.9797 8.9964C78.971 4.81676 81.9486 2.73234 83.902 2.73234C90.9977 2.73234 94.5561 22.2589 94.5561 61.3012C94.5561 100.344 98.6425 119.87 106.805 119.87C114.967 119.87 119.053 123.229 119.053 129.947V129.957ZM48.4659 119.881C64.9803 119.881 73.2374 106.446 73.2374 79.5642C73.2374 71.9393 72.2132 67.0361 70.1753 64.8545C68.1269 62.6728 65.6032 62.446 62.5834 64.1741C59.5635 65.9021 56.4169 68.8505 53.1225 73.0301C49.8386 77.2098 46.861 81.9294 44.2001 87.1998C41.5392 92.4703 39.7125 97.6003 38.7411 102.59C37.7591 107.59 37.9386 111.716 39.269 114.988C40.5995 118.261 43.6616 119.892 48.4554 119.892L48.4659 119.881Z" fill="#CC2200"/>
<path id="Vector_2" d="M195.248 159.377C220.822 159.377 233.598 162.736 233.598 169.453C233.598 176.171 216.725 179.811 182.989 179.811C149.253 179.811 132.379 176.365 132.379 169.453V159.377C133.974 157.379 135.579 155.478 137.173 153.653C136.994 153.836 139.971 150.154 146.095 142.615C152.22 135.077 161.322 123.866 173.401 108.973L198.437 76.281L207.76 57.7588V35.6942L192.576 20.4337H168.607L151.565 35.9642C151.565 43.9563 148.461 47.9523 142.241 47.9523C138.155 47.9523 135.452 47.7255 134.121 47.2719C132.791 46.8183 132.21 45.4575 132.39 43.1895C132.569 40.9215 132.654 37.055 132.654 31.6118L145.705 11.448L167.815 0.0107457H195.248L217.084 12.5388L229.068 34.3334V59.4004L216.82 85.0074L199.778 107.623C194.984 113.433 190.855 118.38 187.392 122.473C183.928 126.566 181.13 129.871 178.997 132.42C179.177 132.236 178.332 133.284 176.463 135.552C174.594 137.82 171.807 141.233 168.069 145.769C160.614 154.852 169.663 159.388 195.237 159.388L195.248 159.377Z" fill="#CC2200"/>
<path id="Vector_3" d="M304.185 60.4914C304.185 69.3906 299.56 73.8403 290.331 73.8403C281.103 73.8403 276.478 69.3906 276.478 60.4914C276.478 51.5921 281.092 47.1425 290.331 47.1425C299.57 47.1425 304.185 51.5921 304.185 60.4914ZM304.185 166.462C304.185 175.361 299.56 179.811 290.331 179.811C281.103 179.811 276.478 175.361 276.478 166.462C276.478 157.563 281.092 153.113 290.331 153.113C299.57 153.113 304.185 157.563 304.185 166.462Z" fill="#CC2200"/>
<path id="Vector_4" d="M409.922 159.377C435.496 159.377 448.272 162.736 448.272 169.453C448.272 176.171 431.399 179.811 397.663 179.811C363.927 179.811 347.053 176.365 347.053 169.453V159.377C348.648 157.379 350.253 155.478 351.847 153.653C351.668 153.836 354.645 150.154 360.77 142.615C366.894 135.077 375.996 123.866 388.075 108.973L413.111 76.281L422.434 57.7588V35.6942L407.25 20.4337H383.281L366.239 35.9642C366.239 43.9563 363.135 47.9523 356.916 47.9523C352.829 47.9523 350.126 47.7255 348.796 47.2719C347.465 46.8183 346.884 45.4575 347.064 43.1895C347.243 40.9215 347.328 37.055 347.328 31.6118L360.379 11.448L382.49 0.0107457H409.922L431.758 12.5388L443.742 34.3334V59.4004L431.494 85.0074L414.452 107.623C409.658 113.433 405.529 118.38 402.066 122.473C398.603 126.566 395.804 129.871 393.672 132.42C393.851 132.236 393.006 133.284 391.137 135.552C389.268 137.82 386.481 141.233 382.743 145.769C375.288 154.852 384.337 159.388 409.911 159.388L409.922 159.377Z" fill="#CC2200"/>
<path id="Vector_5" d="M537.476 159.377C563.05 159.377 575.826 162.736 575.826 169.453C575.826 176.171 558.953 179.811 525.217 179.811C491.48 179.811 474.607 176.365 474.607 169.453V159.377C476.201 157.379 477.806 155.478 479.401 153.653C479.221 153.836 482.199 150.154 488.323 142.615C494.448 135.077 503.549 123.866 515.629 108.973L540.664 76.281L549.988 57.7588V35.6942L534.804 20.4337H510.835L493.793 35.9642C493.793 43.9563 490.688 47.9523 484.469 47.9523C480.383 47.9523 477.68 47.7255 476.349 47.2719C475.019 46.8183 474.438 45.4575 474.618 43.1895C474.797 40.9215 474.882 37.055 474.882 31.6118L487.933 11.448L510.043 0.0107457H537.476L559.312 12.5388L571.296 34.3334V59.4004L559.048 85.0074L542.005 107.623C537.212 113.433 533.083 118.38 529.62 122.473C526.156 126.566 523.358 129.871 521.225 132.42C521.405 132.236 520.56 133.284 518.691 135.552C516.822 137.82 514.035 141.233 510.297 145.769C502.842 154.852 511.891 159.388 537.465 159.388L537.476 159.377Z" fill="#CC2200"/>
<path id="Vector_6" d="M646.412 60.4914C646.412 69.3906 641.788 73.8403 632.559 73.8403C623.33 73.8403 618.706 69.3906 618.706 60.4914C618.706 51.5921 623.32 47.1425 632.559 47.1425C641.798 47.1425 646.412 51.5921 646.412 60.4914ZM646.412 166.462C646.412 175.361 641.788 179.811 632.559 179.811C623.33 179.811 618.706 175.361 618.706 166.462C618.706 157.563 623.32 153.113 632.559 153.113C641.798 153.113 646.412 157.563 646.412 166.462Z" fill="#CC2200"/>
<path id="Vector_7" d="M776.121 0.0107457L807.017 50.4148V132.139L776.121 182.543H715.396L684.501 132.139V50.4148L715.396 0.0107457H776.121ZM765.731 160.738L785.709 123.683V58.8388L765.731 21.7837H725.776L705.798 58.8388V123.683L725.776 160.738H765.731Z" fill="#CC2200"/>
<path id="Vector_8" d="M920.958 91.8116L938.001 114.427V145.488L924.686 168.913L899.386 182.532H864.763L839.464 168.913L826.149 145.488V114.427L843.191 91.8116C852.779 88.3663 853.317 85.1803 844.785 82.2751L829.865 63.2021V34.3227L842.652 12.5281L866.094 0H898.056L921.497 12.5281L934.284 34.3227V63.2021L919.364 82.2751C910.843 85.1803 911.371 88.3663 920.958 91.8116ZM897.781 162.099L916.692 144.667V117.149L897.781 99.1664H866.357L847.446 117.149V144.667L866.357 162.099H897.781ZM868.216 20.4338L851.174 35.6943V60.2105L868.49 76.551H895.659L912.976 60.2105V35.6943L895.933 20.4338H868.237H868.216Z" fill="#CC2200"/>
</g>
</svg>
