<svg width="271" height="90" viewBox="0 0 271 90" fill="none" xmlns="http://www.w3.org/2000/svg">
<g id="Group">
<path id="Vector" d="M48.2792 52.8068C47.7505 55.4856 46.8637 57.9766 45.5847 60.2629C44.3057 62.5492 42.6856 64.5284 40.7244 66.2005C38.7632 67.8725 36.478 69.1693 33.8517 70.0735C31.2254 70.9778 28.3263 71.4556 25.1202 71.4556C21.7265 71.4556 18.5033 70.8925 15.4507 69.7835C12.4151 68.6745 9.7377 67.0536 7.4525 64.9208C5.16729 62.7881 3.34254 60.1947 2.01234 57.1235C0.665097 54.0523 0 50.5205 0 46.528V45.3507C0 41.4265 0.665097 37.8947 2.01234 34.7553C3.35959 31.6158 5.16729 28.9712 7.4525 26.8044C9.7377 24.6375 12.3981 22.9825 15.4507 21.8052C18.4863 20.6279 21.7094 20.0308 25.1202 20.0308C28.1899 20.0308 31.0379 20.4914 33.6471 21.4128C36.2563 22.3341 38.5756 23.6138 40.5709 25.2859C42.5662 26.9579 44.2034 28.9371 45.4824 31.2234C46.7614 33.5097 47.6312 36.0008 48.0746 38.6795L40.4174 40.4539C40.2298 38.7477 39.7523 37.1098 39.002 35.506C38.2516 33.9022 37.2284 32.5031 35.9664 31.2917C34.6874 30.0803 33.1355 29.1248 31.3107 28.3911C29.486 27.6745 27.3542 27.3162 24.9326 27.3162C22.511 27.3162 20.3792 27.7598 18.3157 28.6471C16.2522 29.5343 14.4445 30.7798 12.8756 32.3836C11.3066 33.9875 10.0788 35.8984 9.19198 38.1165C8.30518 40.3345 7.86179 42.7573 7.86179 45.3849V46.5621C7.86179 49.3091 8.30518 51.7831 9.19198 53.967C10.0788 56.168 11.3066 58.0107 12.8756 59.5122C14.4445 61.0136 16.2693 62.1738 18.3669 62.9928C20.4645 63.8118 22.7156 64.2213 25.1372 64.2213C27.5589 64.2213 29.6736 63.8459 31.4642 63.0952C33.2548 62.3445 34.8067 61.3549 36.0687 60.1435C37.3477 58.9321 38.3539 57.5501 39.1043 55.9633C39.8546 54.3936 40.3663 52.7556 40.6221 51.0494L48.2792 52.8239V52.8068Z" fill="#F7F2E4"/>
<path id="Vector_2" d="M96.8817 61.8326H95.705C94.1361 65.1085 91.9532 67.5313 89.1905 69.101C86.4107 70.6707 83.4775 71.4556 80.4078 71.4556C77.3381 71.4556 74.2343 70.9096 71.4887 69.8347C68.743 68.7598 66.3384 67.1559 64.2749 65.0232C62.2114 62.8904 60.5913 60.297 59.4146 57.2259C58.2379 54.1547 57.641 50.5888 57.641 46.528V44.9583C57.641 40.9658 58.2379 37.434 59.4146 34.3628C60.5913 31.2917 62.2114 28.6812 64.2749 26.5655C66.3384 24.4328 68.743 22.8289 71.4887 21.7028C74.2343 20.5938 77.1505 20.0308 80.2202 20.0308C83.5627 20.0308 86.5812 20.7644 89.2928 22.2318C92.0043 23.6991 94.1531 25.9854 95.7221 29.0565H96.8988V21.3957H104.556V60.0582C104.556 62.0203 105.443 63.0099 107.199 63.0099H109.655V70.0735H104.454C102.237 70.0735 100.412 69.3569 99.0134 67.9067C97.615 66.4735 96.8988 64.6308 96.8988 62.4127V61.8326H96.8817ZM81.1923 64.1872C83.4775 64.1872 85.5921 63.7606 87.5192 62.9075C89.4463 62.0544 91.1005 60.843 92.4648 59.2733C93.8291 57.7036 94.9205 55.8268 95.705 53.6258C96.4895 51.4419 96.8817 49.002 96.8817 46.3062V45.1289C96.8817 42.5185 96.4895 40.1127 95.705 37.9117C94.9205 35.7278 93.8291 33.8339 92.4136 32.2642C90.9982 30.6945 89.344 29.466 87.4169 28.5788C85.4898 27.6916 83.4092 27.248 81.1923 27.248C78.9753 27.248 76.8094 27.6745 74.9165 28.5276C73.0235 29.3807 71.3693 30.5751 69.9709 32.1106C68.5554 33.6462 67.464 35.506 66.6795 37.707C65.895 39.908 65.5028 42.2966 65.5028 44.9242V46.4939C65.5028 52.0561 66.9524 56.3898 69.8686 59.4951C72.7848 62.6004 76.5536 64.153 81.1923 64.153V64.1872Z" fill="#F7F2E4"/>
<path id="Vector_3" d="M119.633 21.3957H146.714V82.051C146.714 84.2691 146.015 86.1118 144.6 87.545C143.184 88.9782 141.376 89.7119 139.159 89.7119H117.28V82.6482H136.414C138.187 82.6482 139.057 81.6586 139.057 79.6965V28.4594H119.633V21.3957ZM135.919 6.87598C135.919 4.9821 136.584 3.36121 137.932 2.01331C139.279 0.665418 140.882 0 142.792 0C144.702 0 146.305 0.665418 147.652 2.01331C149 3.36121 149.665 4.9821 149.665 6.87598C149.665 8.76986 149 10.3907 147.652 11.7386C146.305 13.0865 144.685 13.752 142.792 13.752C140.899 13.752 139.279 13.0865 137.932 11.7386C136.584 10.3907 135.919 8.78692 135.919 6.87598Z" fill="#F7F2E4"/>
<path id="Vector_4" d="M202.531 61.8326H201.354C199.785 65.1085 197.603 67.5313 194.84 69.101C192.06 70.6707 189.127 71.4556 186.057 71.4556C182.987 71.4556 179.884 70.9096 177.138 69.8347C174.392 68.7598 171.988 67.1559 169.924 65.0232C167.861 62.8904 166.241 60.297 165.064 57.2259C163.887 54.1547 163.29 50.5888 163.29 46.528V44.9583C163.29 40.9658 163.887 37.434 165.064 34.3628C166.241 31.2917 167.861 28.6812 169.924 26.5655C171.988 24.4328 174.392 22.8289 177.138 21.7028C179.884 20.5938 182.8 20.0308 185.87 20.0308C189.212 20.0308 192.231 20.7644 194.942 22.2318C197.654 23.6991 199.803 25.9854 201.371 29.0565H202.548V21.3957H210.205V60.0582C210.205 62.0203 211.092 63.0099 212.849 63.0099H215.304V70.0735H210.103C207.886 70.0735 206.061 69.3569 204.663 67.9067C203.264 66.4735 202.548 64.6308 202.548 62.4127V61.8326H202.531ZM186.825 64.1872C189.11 64.1872 191.224 63.7606 193.152 62.9075C195.079 62.0544 196.733 60.843 198.097 59.2733C199.461 57.7036 200.553 55.8268 201.337 53.6258C202.122 51.4419 202.514 49.002 202.514 46.3062V45.1289C202.514 42.5185 202.122 40.1127 201.337 37.9117C200.553 35.7278 199.461 33.8339 198.046 32.2642C196.631 30.6945 194.976 29.466 193.049 28.5788C191.122 27.6916 189.042 27.248 186.825 27.248C184.608 27.248 182.442 27.6745 180.549 28.5276C178.656 29.3807 177.002 30.5751 175.603 32.1106C174.188 33.6462 173.096 35.506 172.312 37.707C171.527 39.908 171.135 42.2966 171.135 44.9242V46.4939C171.135 52.0561 172.585 56.3898 175.501 59.4951C178.417 62.6004 182.186 64.153 186.825 64.153V64.1872Z" fill="#F7F2E4"/>
<path id="Vector_5" d="M225.297 74.8H271.001V81.8637H225.297V74.8Z" fill="#CC2200"/>
</g>
</svg>
