<svg width="313" height="96" viewBox="0 0 313 96" fill="none" xmlns="http://www.w3.org/2000/svg">
<path id="14" d="M216.647 90.2716C216.647 90.2716 215.47 90.3901 215.482 90.381C215.47 90.3445 215.482 90.3171 215.493 90.2716C215.47 90.2716 216.682 90.2716 216.647 90.2716ZM168.667 91.1561C169.296 91.22 165.868 90.7002 166.176 90.5634C165.845 90.7184 166.519 90.3901 167.056 90.226C166.553 90.1986 152.887 90.4448 153.116 90.308C153.081 90.7822 153.504 91.0285 154.338 91.685C153.984 90.7002 153.79 93.363 152.076 94.9588C152.213 95.0956 170.324 95.1139 170.861 95.1321C172.952 93.4815 176.094 90.8369 180.448 91.3294C179.625 91.22 179.682 90.691 179.397 90.3263C180.311 90.08 168.816 90.2716 168.77 90.4448C169.376 90.4631 169.616 90.7822 168.656 91.147L168.667 91.1561ZM211.597 86.5327C213.962 86.9065 212.522 86.7971 213.802 86.4871C212.682 87.0069 281.516 87.2166 283.287 86.6603C291.788 86.56 299.992 79.8209 300.747 70.0815C299.284 70.3733 299.215 56.8403 300.278 57.6702C301.866 57.1504 300.998 57.6155 300.118 56.9589C300.415 55.4725 298.77 55.7825 299.044 56.2111C296.473 56.3297 298.53 69.4979 299.215 70.118C296.702 70.8749 296.862 70.5648 296.279 70.6651C299.318 69.8262 297.307 70.0086 297.159 70.5831C299.01 69.662 298.553 71.4859 301.398 71.4768C299.478 71.8507 297.239 71.5406 296.827 71.7686C296.964 78.4803 290.303 83.7695 280.967 84.1069C281.036 84.5355 218.178 83.3318 218.258 83.8425C217.001 85.8396 216.567 85.1556 211.597 86.5327ZM30.8631 95.1777C32.7713 95.2689 65.5084 95.1503 66.4911 94.7856C66.0568 94.9406 67.1652 95.1504 69.4734 94.9041C67.9308 94.9041 88.67 95.4969 89.3898 95.123C87.6987 94.9497 87.1617 94.3205 88.5671 95.1048C91.9722 92.3052 93.6062 96.4544 94.3718 93.4542C94.7489 93.7733 95.8801 95.2689 97.5141 95.2324C95.1488 95.4239 97.7426 94.6397 98.3368 95.0592C97.0913 94.3661 99.8337 95.1139 101.502 94.8768C103.01 93.062 100.382 93.4359 100.211 92.5149C101.97 91.7671 101.97 93.2718 104.576 93.1441C102.793 93.4907 101.456 94.1655 101.068 94.3479C104.301 96.9469 106.53 93.1897 108.804 93.3083C108.838 93.6183 110.997 89.998 111.043 90.3719C109.878 90.764 113.877 90.7731 113.328 91.0193C114.243 92.4146 109.866 91.0376 109.203 93.5727C110.346 95.0956 112.826 93.3174 113.523 92.7885C110.986 92.8432 111.82 92.3051 112.414 92.2778C113.054 92.4966 113.146 92.7611 111.854 92.5422C113.477 92.9344 115.385 92.5058 112.837 94.0925C115.614 92.2048 117.351 91.3932 117.499 90.764C118.082 90.5178 30.9316 90.9646 31.583 90.3992C32.04 89.8703 29.5148 90.2989 27.9265 90.3992C30.4403 89.9433 27.9265 94.8677 29.7204 95.2598C29.7204 95.0956 32.8056 94.8221 30.8859 95.1686L30.8631 95.1777ZM166.051 84.1252C167.022 84.189 209.369 84.0978 209.871 83.9063C208.272 85.028 207.437 86.0676 207.449 86.8336C206.66 86.8245 166.702 87.171 167.067 86.9704C165.616 86.3776 164.679 85.5934 164.154 85.5934C166.199 84.7909 167.113 84.3805 166.039 84.1161L166.051 84.1252ZM199.839 85.7666C201.153 86.3594 203.312 85.5934 204.044 86.788C206.101 84.1981 201.461 85.9946 199.839 85.7666ZM192.869 93.7551C190.835 94.357 190.915 94.6397 191.429 95.0136C191.395 95.0318 194.114 95.05 194.171 95.0318C193.657 94.6579 193.303 94.2658 192.869 93.7551ZM9.12981 26.1996C15.5744 27.2392 10.3753 47.0554 13.5405 45.6328C10.9466 46.9277 12.5692 47.4749 18.5567 45.4504C12.9006 46.0523 13.2205 49.2166 16.5228 47.5934C12.0779 48.478 11.8265 44.8759 15.2202 47.8305C20.1564 45.879 17.7226 47.1192 15.0716 44.429C16.5228 46.0705 15.4601 46.417 20.9791 46.7727C13.1405 46.946 19.2309 24.5035 21.4248 26.7194C13.7918 20.8831 21.1734 13.0132 27.8351 12.7487C37.022 10.1133 260.777 11.9827 260.422 13.9889C265.998 10.779 258.251 11.7 267.198 11.773C261.371 12.8855 262.651 13.7062 261.416 14.454C263.576 12.7943 281.779 11.317 277.974 12.3657C286.692 13.8704 302.621 16.0681 302.94 25.5704C299.215 27.0933 300.427 52.7002 298.713 53.6851C300.598 54.9071 302.072 54.7064 295.068 53.831C296.233 57.2325 299.764 25.3242 304.289 27.3031C296.005 17.7187 290.417 8.17086 282.327 8.58122C284.361 9.54786 284.247 10.5601 279.63 8.79097C283.881 10.095 287.206 9.26517 280.819 12.1925C285.241 10.9978 283.984 10.1497 279.173 11.3535C281.013 10.3412 28.0522 12.0009 29.9604 9.49315C24.0643 7.3866 18.7738 16.1684 9.14123 26.1996H9.12981ZM234.244 5.48979C237.878 7.11302 279.116 5.64482 280.613 4.55051C277.562 5.02471 276.534 5.30741 277.574 3.90304C274.248 3.01847 274.214 5.78161 274.865 4.35901C271.632 4.85145 270.283 3.29205 271.689 7.04919C271.163 5.13414 272.295 5.38036 269.404 1.09431C272.889 2.31629 272.934 4.41372 277.414 5.75425C273.597 5.1615 276.819 2.67194 278.739 5.09767C275.117 6.16462 275.38 4.59611 274.626 4.06719C279.322 1.5138 274.66 2.7449 273.963 4.30429C279.036 0.766018 278.133 1.2311 285.641 2.19774C280.464 8.92776 288.36 6.62058 289.8 9.52963C291.434 8.3806 291.8 7.22245 290.566 8.22557C290.931 9.73025 296.896 5.56275 297.33 7.35924C295.548 8.49915 295.867 9.08278 295.079 9.88528C301.684 14.4996 305.786 20.0624 301.249 25.1144C302.392 28.5615 303.775 53.5848 306.517 55.9558C302.312 54.7612 303.786 52.9099 305.283 53.3021C306.346 55.2536 306.334 56.6488 303.169 54.6791C305.626 55.9467 307.225 69.5252 304.495 71.8598C306.974 82.6114 296.37 90.992 281.779 91.9586C282.624 91.1379 219.698 92.2504 220.349 89.9797C221.264 88.9401 218.247 90.8278 217.744 92.6608C217.984 91.5665 210.991 91.2929 211.551 95.4969C208.42 92.5423 206.318 92.0498 208.957 91.7306C206.42 89.2775 204.204 92.4875 206.009 88.5571C205.198 91.7945 208.374 90.2807 206.078 89.8521C201.496 90.6637 203.21 93.2718 200.239 92.2869C201.096 91.3203 204.467 88.6483 205.301 88.8854C202.844 90.3719 180.208 90.8643 179.054 89.1499C182.333 92.1775 179.557 89.7518 178.403 91.1288C187.635 93.2353 194.971 89.7335 199.153 91.4206C200.764 90.6728 197.005 93.135 195.999 94.9588C199.736 95.4331 198.982 94.9041 197.988 94.9406C200.513 95.1868 200.17 92.7064 199.565 92.9891C203.667 93.3265 203.244 93.8007 204.695 94.1381C205.895 93.062 205.986 92.1684 207.255 94.3205C201.221 93.2262 201.381 96.1991 202.353 95.9893C202.867 92.6334 202.81 96.0076 198.468 94.3752C204.055 94.2111 283.058 93.4724 281.139 94.8677C296.37 96.6459 312.779 84.2255 312.002 69.6438C307.088 68.668 307.34 25.2148 310.333 25.1053C307.785 13.6424 299.787 1.39525 281.436 2.18862C281.664 3.34677 266.456 1.74178 263.37 0.392128C261.919 0.993999 262.262 4.02159 266.216 0C266.501 3.2647 262.308 2.14303 264.433 0.218862C262.628 2.21598 263.759 3.55651 262.548 1.91504C264.662 -0.12767 260.994 3.09143 260.148 0.355651C262.982 1.06695 261.611 1.48644 264.262 1.68706C258.765 1.53204 261.245 2.16126 253.406 3.35589C252.709 3.57475 258.228 3.10967 258.434 4.17662C252.515 4.86968 242.677 6.48379 238.323 6.03695C237.169 4.23134 239.363 5.6813 234.256 5.49891L234.244 5.48979ZM250.653 1.37701C250.79 1.37701 244.037 1.37701 244.105 1.35877C246.002 2.03359 248.504 1.76002 250.653 1.37701ZM36.4621 84.5264C38.3246 84.6085 35.0909 87.0798 36.0622 86.7242C35.0224 87.1345 111.02 87.2622 112.654 86.7971C111.146 86.7971 111.672 86.5783 112.391 86.2135C111.055 86.4779 110.392 86.9248 111.295 87.4537C112.814 86.9613 114.962 87.2622 114.277 86.7698C114.643 87.0707 113.26 86.9248 114.86 86.8974C113.214 85.8122 116.288 85.8122 117.922 86.9704C115.625 87.4993 119.75 87.1619 119.236 87.1436C122.047 86.2408 119.899 86.5874 119.75 86.788C121.476 86.0585 117.396 86.5235 119.956 86.3959C118.208 86.7333 123.132 84.4443 122.755 84.6267C123.441 84.2437 43.4094 83.9975 42.2554 84.2893C42.2782 84.5903 42.9409 85.5843 42.9867 85.9399C41.4441 86.1314 40.7699 85.7666 40.7585 85.3472C40.987 85.5204 44.0379 84.2711 41.6955 84.1799C41.9354 84.8456 37.0563 84.0249 38.3246 84.3349C35.9022 84.4352 39.3416 84.189 36.485 84.5264H36.4621ZM4.4792 44.1372C5.06196 45.0127 4.58204 54.7064 4.66203 54.3599C4.76487 54.8341 5.06196 55.3174 5.37047 55.0986C4.79915 54.5332 4.97055 55.7004 4.83343 55.2536C4.6049 55.2992 4.38779 58.1991 4.97055 59.64C6.23889 59.7403 7.09588 60.9896 5.40475 60.1689C5.69042 60.9349 4.83343 60.0594 5.26764 60.5975C4.71916 60.105 4.81057 61.628 5.22193 62.6767C4.87913 62.8864 4.90199 62.3575 4.74202 62.1204C5.11909 61.71 4.63918 62.3575 4.84485 63.1418C4.90199 62.3028 4.45635 69.7532 5.11909 70.4554C4.822 75.781 6.76451 80.8969 9.86111 85.1556C9.8154 84.4535 9.58687 83.651 9.32406 83.5963C12.0436 85.411 14.306 84.0887 16.5799 84.262C12.6606 80.9881 10.2153 75.5804 10.1925 70.4463C10.3639 70.8931 10.2953 52.5634 9.57544 51.4873C10.0439 52.9464 7.17587 50.776 7.72434 51.8977C7.72434 50.6484 8.66132 49.3534 9.96395 48.9704C10.2153 49.5085 10.3524 43.9184 9.8154 42.8788C8.867 43.4077 7.93002 43.3165 5.78183 45.2589C6.03321 45.2589 6.29603 45.1403 6.10177 45.3774C5.65614 44.8759 5.41618 44.4473 4.4792 44.1463V44.1372ZM10.0439 51.6059C10.0439 51.6059 10.0439 50.776 10.0554 50.7669C9.60972 50.776 9.22122 50.7669 8.95841 50.6119C8.76416 51.6971 9.4726 51.4691 10.0325 51.6059H10.0439ZM24.1671 82.812C24.7156 83.6236 21.5962 83.4777 21.6647 83.1494C24.6242 83.6966 26.3839 85.9581 29.3091 86.6968C29.0463 86.1952 29.4805 87.2713 29.629 86.861C28.7492 85.3836 29.7319 84.0522 31.6515 84.8365C23.6415 84.1161 17.0827 78.3071 16.6142 69.6347C16.877 70.346 16.8313 50.4204 17.2427 50.9128C15.5858 50.6849 14.546 50.4569 14.0661 52.1439C13.7347 52.3446 13.6204 70.2821 13.4719 70.0633C13.8375 74.8326 16.1114 79.7206 20.3164 83.5324C21.6533 82.5384 23.2073 82.7938 24.1671 82.8211V82.812ZM164.942 86.5691C160.771 84.5173 158.738 85.4292 154.201 86.3594C154.121 86.5965 154.247 86.8154 154.533 86.9521C154.35 86.9521 164.919 87.0251 164.999 86.9795C164.839 87.016 165.296 86.5418 164.942 86.5782V86.5691ZM150.088 93.4906C150.088 93.4906 148.831 95.05 148.854 95.0409C148.831 95.0592 150.796 95.0774 150.83 95.0592C150.248 94.585 150.065 94.0834 150.099 93.4906H150.088ZM138.947 95.0774C139.05 95.0774 143.963 95.0774 144.02 95.0592C141.998 95.0227 141.015 94.0469 138.947 95.0774ZM144.214 95.0683C144.283 95.0683 147.665 95.0683 147.699 95.05C147.654 95.0683 147.151 94.4026 147.22 94.3843C145.974 94.8859 145.129 95.0409 144.214 95.0683ZM67.8508 95.1139C67.8508 95.1139 67.8508 95.05 67.8622 95.0136L67.7023 95.1139H67.8508ZM223.423 6.14638C222.852 6.14638 222.361 6.01871 222.041 5.80897C221.664 5.85456 221.378 5.98223 221.172 6.13726C221.138 6.13726 223.503 6.13726 223.435 6.13726L223.423 6.14638ZM28.4064 1.71442C33.594 1.76002 31.7886 1.65971 34.5539 0.729541C31.5944 1.80561 33.1598 4.18574 37.7762 2.9364C33.5598 2.2251 33.2512 2.99112 35.468 1.54116C31.7087 2.29805 238.358 1.30405 240.814 2.5078C243.614 3.65682 239.615 3.02759 234.313 3.63858C235.295 4.34077 231.97 3.46532 236.449 3.24646C229.959 3.89392 233.776 3.8848 235.341 4.80585C228.851 6.26493 231.033 4.83321 229.582 4.83321C236.598 4.57787 233.09 5.1615 233.821 7.13126C238.735 5.24357 223.023 6.33789 230.188 5.80897C225.263 6.77561 225.491 5.69042 224.394 6.14638C225.366 5.23445 225.194 5.1159 222.132 6.46555C222.166 7.18598 227.857 4.54139 227.914 5.3986C224.086 6.13726 224.76 5.25269 222.829 5.89104C221.629 5.28917 223.023 1.9424 212.419 1.88769C213.779 3.83921 215.55 2.35277 218.658 4.17662C213.871 5.22534 216.91 4.49579 219.161 5.69954C220.727 6.02783 33.9711 6.60234 30.3718 6.07343C21.6304 6.2011 14.5574 14.372 9.40404 27.3487C13.4605 26.5918 12.6035 30.0936 8.46707 31.1514C10.1011 30.5222 6.12463 31.2426 7.97573 29.8838C11.4951 30.2395 5.86182 31.4614 2.93662 33.8051C11.0038 32.5831 5.67899 32.3643 11.2094 32.6834C8.54705 32.1727 5.85039 42.2313 11.6551 41.8027C7.05018 40.371 3.82789 41.8665 6.77594 38.6292C4.38779 40.5169 9.99822 38.9848 6.53598 39.2584C1.64542 40.0609 5.56473 40.3801 3.47367 40.8269C2.9709 39.9424 8.34138 37.7993 9.09553 37.8358C4.66203 39.1855 1.22264 31.8353 0 31.1879C4.12498 32.0633 3.85074 30.9417 1.51973 31.9448C8.04429 31.352 7.0616 30.9599 7.77005 29.82C10.0782 28.8169 5.86182 29.4096 3.1423 30.9143C8.90128 30.3215 3.42796 26.6738 1.83967 26.9201C5.75898 25.0506 6.27317 22.8893 5.46189 21.8133C9.92967 21.7312 7.90717 22.2601 8.44421 22.178C10.6495 20.6095 10.2268 19.9073 10.1582 20.719C4.17069 10.095 23.2873 0.665706 28.4064 1.71442ZM10.3753 21.485C10.4439 21.5488 9.57544 18.4027 9.5983 18.3753C9.57544 18.4118 7.88431 21.257 7.93002 21.2205C7.87289 21.184 10.4781 21.5032 10.3867 21.485H10.3753ZM22.2818 3.2647C26.2239 2.73578 29.6404 4.44108 32.6685 2.15215C29.2291 2.89081 24.8756 2.4622 22.2818 3.2647ZM27.3209 91.7854C25.8468 90.764 22.4989 91.2473 19.4137 92.1684C21.6647 93.363 24.2243 94.2293 27.0581 94.6488C27.7436 93.7369 28.5892 92.8432 27.3209 91.7945V91.7854ZM109.215 95.0774C109.101 94.5211 108.518 94.0743 107.604 94.2567C107.661 94.5667 107.581 94.8403 107.478 95.0774C107.444 95.0683 109.272 95.0774 109.215 95.0774ZM137.656 95.0409C139.13 90.1986 132.377 95.5698 129.463 93.9101C129.303 94.0104 129.303 94.0834 129.463 94.0196C129.623 94.5941 129.726 95.3601 129.246 94.0925C129.12 94.1199 129.12 94.0013 129.314 94.1655C129.463 94.0013 129.314 94.0013 129.154 93.7733C129.04 93.746 128.834 93.6092 128.914 93.4542C128.789 93.5271 129.177 93.5545 129.417 93.8828C129.211 94.0196 129.303 93.9831 129.314 94.0104C130.491 93.3995 128.469 91.4753 128.103 91.4206C125.715 92.2413 127.36 93.9101 127.212 95.0956C126.983 95.1412 138.033 95.0409 137.656 95.05V95.0409Z" fill="#CC2200"/>
</svg>
