<svg width="1088" height="226" viewBox="0 0 1088 226" fill="none" xmlns="http://www.w3.org/2000/svg">
<g id="Group">
<path id="Vector" d="M1088 23.2181C1088 20.0977 1087.16 17.1782 1085.64 14.3963C1084.4 14.5338 1083.01 14.7454 1081.48 14.1848C1080.51 13.9098 1078.57 13.9098 1078.16 14.4598C1077.2 15.4329 1078.58 15.6445 1079.96 15.9935C1081.36 16.2686 1083.85 15.6445 1083.43 16.8927C1080.93 17.7283 1079.28 17.5908 1078.02 17.2417C1080.24 20.1611 1081.48 23.3556 1081.76 26.8251C1083.84 26.8251 1085.92 26.8991 1088 26.8251V23.2181Z" fill="url(#paint0_linear_316_5877)"/>
<path id="Vector_2" d="M832.947 222.236C829.336 222.861 826.706 222.374 826.569 220.851H795.778C796.19 221.898 796.612 222.861 794.532 225.156H831.975C836.833 224.881 841.405 224.257 846.537 223.834C845.154 224.595 843.622 224.669 842.102 225.156H870.813C874.973 224.257 879.271 223.77 883.294 222.511C884.825 222.236 885.923 222.512 885.923 223.136C885.923 224.035 884.952 224.807 883.294 225.145H895.775C892.449 224.246 891.889 223.062 890.369 221.813C889.82 221.253 889.947 220.978 890.094 220.84H848.353C843.221 221.189 838.227 221.464 832.957 222.226L832.947 222.236Z" fill="url(#paint1_linear_316_5877)"/>
<path id="Vector_3" d="M1048.61 220.851H1038.62C1038.49 220.988 1038.07 220.988 1038.2 221.337C1038.75 222.86 1036.95 223.696 1033.35 223.696C1029.47 224.32 1025.31 224.595 1022.53 223.209C1021 222.511 1020.87 221.051 1024.88 221.337C1026.69 221.337 1027.51 221.126 1028.21 220.851H922.944C925.299 221.612 923.082 222.173 922.522 223.209C922.11 223.421 922.11 224.32 922.522 224.944C922.522 225.082 922.385 225.018 922.385 225.156H1001.3C1001.3 225.018 1001.02 225.156 1001.16 224.944C1001.99 222.86 1005.74 224.595 1008.37 224.32C1009.62 223.696 1011 223.421 1012.39 223.209C1013.79 223.209 1015.03 223.209 1015.72 223.696C1016.69 224.32 1015.44 224.595 1014.61 224.944C1014.47 225.018 1014.34 225.156 1014.19 225.156H1056.21C1073.83 225.156 1087.98 214.948 1087.98 201.959V44.828C1087.55 44.6165 1086.73 44.828 1086.45 44.2674C1085.9 43.5693 1086.87 43.4318 1087.98 43.4318V29.2577C1086.03 29.2577 1084.09 29.3952 1082.01 29.7443V197.157C1082.01 210.22 1067.04 220.84 1048.59 220.84L1048.61 220.851Z" fill="url(#paint2_linear_316_5877)"/>
<path id="Vector_4" d="M60.6112 4.32659C63.8002 4.11504 60.4 2.86688 62.8287 2.31684C74.3384 4.05157 86.7563 3.70251 98.8151 3.21594C101.307 3.21594 104.57 2.94092 105.404 3.49096C105.816 4.05157 105.13 4.11504 104.707 4.32659H424.805C426.473 3.35345 429.388 3.2794 433.749 4.32659H703.257C705.062 3.70251 706.731 3.21594 708.251 3.21594C714.914 3.49096 720.183 1.75622 725.727 0.0214922H390.55C391.87 1.13214 393.053 2.3803 395.893 2.80341C397.773 3.01496 396.168 4.05157 394.647 4.05157C391.67 4.32659 388.481 4.32659 384.943 3.70251C377.942 2.80341 371.005 1.26965 363.656 1.26965C354.226 0.994633 344.934 0.709039 335.568 0.0214922H292.369C290.848 0.159002 289.455 0.021491 287.86 0.233044C286.266 0.582106 284.745 0.508064 284.048 0.0214922H271.567C269.212 0.508064 265.738 0.582105 263.32 1.26965C259.994 1.96778 255.348 1.26965 255.411 0.0214922H31.7629C20.1793 0.0214922 10.4752 4.81316 4.93148 11.5511C8.12042 10.578 11.3833 9.54137 13.3262 8.08165C14.8573 6.89696 17.7612 7.52104 18.5954 8.29321C19.0072 8.77978 18.8699 9.34039 18.8699 9.75292C24.5614 6.48443 31.5623 4.33717 39.3974 4.33717H60.6218L60.6112 4.32659Z" fill="url(#paint3_linear_316_5877)"/>
<path id="Vector_5" d="M743.075 221.337C742.526 222.035 742.526 222.522 742.104 223.146C740.72 225.018 737.806 225.018 732.399 223.844C736.834 222.871 738.915 221.834 736.423 220.861H500.335C501.307 221.21 502.215 221.623 503.25 222.046C505.193 222.532 506.576 223.579 506.576 224.341C506.851 225.039 506.027 225.388 505.045 224.754C501.782 223.156 497.896 222.395 494.581 220.861H318.576C318.302 220.999 318.714 221.21 318.228 221.274C314.902 222.522 311.987 222.871 309.01 221.485C310.678 221.136 312.125 221.136 313.73 220.861H39.3963C21.023 220.861 5.97583 210.23 5.97583 197.178V28.0095C5.97583 27.872 6.11311 27.7979 6.11311 27.597C4.44472 28.2211 2.43843 28.9192 0.00976919 29.3317V201.948C0.00976919 214.938 14.1594 225.145 31.7725 225.145H169.837C170.945 223.96 171.22 222.85 166.785 221.252C170.111 221.464 171.157 221.464 171.991 221.464C181.008 222.162 182.603 222.437 183.574 225.145H299.865C300.14 225.145 300.277 224.933 300.625 225.007C300.699 225.007 300.699 225.145 300.9 225.145H358.248C358.248 225.007 357.836 224.87 358.037 224.87C358.523 224.796 359.22 225.145 359.705 225.145H484.253C481.751 223.759 479.396 222.437 480.093 221.326C481.128 220.216 485.288 222.226 488.974 223.823C490.082 224.235 491.117 224.658 492.3 225.145H794.267C792.461 224.246 792.049 222.85 792.461 220.84H746.422C745.176 220.84 743.782 220.914 743.096 221.326L743.075 221.337ZM489.375 223.421C487.717 223.421 485.763 223.008 485.426 222.173C485.003 220.924 487.844 220.924 489.375 220.924C491.043 220.924 493.398 220.649 493.123 221.485C493.123 222.532 491.877 223.008 489.375 223.431V223.421Z" fill="url(#paint4_linear_316_5877)"/>
<path id="Vector_6" d="M5.96606 17.9395C4.50886 18.7011 2.84048 18.9867 1.04538 19.3992C0.770836 20.6474 0 21.8955 0 23.2177V27.1738C2.15412 27.0997 4.29768 26.7612 6.4518 26.4756C6.80026 22.6571 8.60591 19.2511 11.1719 16.1201C9.22892 16.3952 7.49718 17.0192 5.96606 17.9289V17.9395Z" fill="url(#paint5_linear_316_5877)"/>
<path id="Vector_7" d="M819.906 2.30593C831.416 4.04066 844.045 3.69159 855.967 3.20502C858.469 3.20502 861.795 2.93 862.63 3.48004C863.041 4.04066 862.355 4.10412 861.933 4.31568H1048.61C1055 4.31568 1060.68 5.9129 1065.67 8.13421C1070.52 8.27171 1075.38 8.48327 1080.23 8.40922C1074.41 3.34253 1065.95 0 1056.24 0H1049.44C1048.05 0.137509 1046.67 -1.21367e-06 1045.14 0.211552C1043.47 0.560614 1041.95 0.486571 1041.25 0H1028.77C1026.42 0.486571 1022.95 0.560615 1020.59 1.24816C1017.12 1.94629 1012.54 1.24816 1012.69 0H745.008C745.705 0.698124 746.402 1.59722 746.951 1.94629C748.06 3.48004 748.06 4.3051 745.98 4.03008C743.9 3.26849 741.397 2.64441 738.905 2.02033C738.208 2.36939 736.962 2.64441 735.294 2.91943C732.664 3.33196 729.887 3.75506 727.247 4.3051H817.815C821.004 4.09355 817.541 2.84538 819.896 2.29535L819.906 2.30593Z" fill="url(#paint6_linear_316_5877)"/>
<path id="Vector_8" d="M906.736 223.21C910.199 223.421 909.09 221.824 909.502 221.052C909.502 220.84 909.777 220.914 909.777 220.84H902.702C903.536 221.813 903.251 223.199 906.725 223.199L906.736 223.21Z" fill="url(#paint7_linear_316_5877)"/>
<path id="Vector_9" d="M1083.84 12.2486C1083.75 12.298 1083.61 12.3227 1083.42 12.3227H1083.98C1083.98 12.3227 1083.84 12.3226 1083.84 12.2486Z" fill="url(#paint8_linear_316_5877)"/>
<path id="Vector_10" d="M796.886 217.582C796.886 217.444 796.749 217.444 796.886 217.37H794.943C794.531 217.719 793.697 217.857 793.285 218.417C792.588 219.465 792.736 220.089 792.451 220.85H795.777C795.503 220.015 795.228 219.042 796.886 217.582Z" fill="url(#paint9_linear_316_5877)"/>
<path id="Vector_11" d="M826.146 7.52105C830.444 5.16224 832.387 7.03448 836.135 7.52105C835.301 7.59509 834.89 7.7326 834.193 7.79607H850.697C852.355 6.75946 854.308 5.71227 857.497 5.15166C859.028 5.01415 860.961 4.87664 861.932 4.31603H817.826C817.551 4.36539 817.227 4.39007 816.854 4.39007C813.813 4.39007 810.054 4.04101 809.927 6.1248C809.505 8.07109 814.647 6.26231 816.727 6.88639C817.973 7.09795 819.779 7.58452 821.3 7.78549H822.271C823.802 7.923 825.185 7.99704 826.157 7.51047L826.146 7.52105Z" fill="url(#paint10_linear_316_5877)"/>
<path id="Vector_12" d="M912.28 218.281C910.2 218.281 909.366 219.391 909.777 220.851H922.955C922.681 220.777 922.955 220.777 922.681 220.713C919.629 219.74 916.166 217.731 912.28 218.281Z" fill="url(#paint11_linear_316_5877)"/>
<path id="Vector_13" d="M353.74 218.904C358.038 219.666 362.684 219.666 366.982 220.089C368.017 220.227 369.611 220.089 369.611 219.676C369.611 218.915 367.605 218.291 366.285 218.291C363.856 218.291 362.547 217.878 361.713 217.392H350.266C351.164 217.952 352.209 218.439 353.73 218.925L353.74 218.904Z" fill="url(#paint12_linear_316_5877)"/>
<path id="Vector_14" d="M494.581 220.85H500.336C496.725 219.391 493.187 217.73 489.935 217.381H489.798C490.769 219.391 492.775 220.089 494.581 220.85Z" fill="url(#paint13_linear_316_5877)"/>
<path id="Vector_15" d="M187.726 218.481C189.32 218.481 191.052 218.206 191.538 217.37H185.361C185.846 217.719 186.121 218.269 187.715 218.481H187.726Z" fill="url(#paint14_linear_316_5877)"/>
<path id="Vector_16" d="M899.662 218.904C897.993 218.904 895.638 217.719 895.353 219.465C895.353 219.74 893.822 220.438 892.576 220.438C891.193 220.438 890.507 220.575 890.084 220.85H902.703L902.565 220.776C902.143 220.152 902.565 219.042 899.651 218.904H899.662Z" fill="url(#paint15_linear_316_5877)"/>
<path id="Vector_17" d="M679.414 6.47396C671.367 5.77584 669.287 5.63833 664.166 7.79617H675.401C676.647 7.44711 678.442 6.89707 679.424 6.47396H679.414Z" fill="url(#paint16_linear_316_5877)"/>
<path id="Vector_18" d="M1077.87 28.0099V30.3052C1078.57 30.1677 1079.4 30.0937 1079.95 29.9562C1080.79 29.6071 1081.35 29.8821 1082.03 29.7446V28.0099C1082.03 27.5233 1081.76 27.2483 1081.76 26.8252H1077.46C1077.46 27.2377 1077.87 27.5233 1077.87 28.0099Z" fill="url(#paint17_linear_316_5877)"/>
<path id="Vector_19" d="M426.958 7.79526H451.572C445.68 7.58371 440.759 6.27208 435.553 4.60081C434.856 4.38926 434.445 4.4633 433.748 4.3258H424.804C424.181 4.67486 423.146 4.73832 423.009 5.29894C421.203 6.48363 423.695 7.45677 426.958 7.79526Z" fill="url(#paint18_linear_316_5877)"/>
<path id="Vector_20" d="M747.511 220.226C746.677 218.068 742.928 219.665 740.299 219.528C739.053 218.904 737.533 218.481 736.139 218.28C734.893 218.28 733.647 218.28 732.95 218.904C731.978 219.528 733.224 219.665 733.921 220.226C735.167 220.438 735.864 220.639 736.413 220.85H746.402C747.237 220.776 748.06 220.713 747.511 220.226Z" fill="url(#paint19_linear_316_5877)"/>
<path id="Vector_21" d="M16.1666 16.4165C17.9723 14.6818 20.1898 13.148 22.8191 11.8364C22.5445 11.8364 22.3333 11.7623 22.0588 11.8364C19.0071 11.9739 18.9332 10.9373 18.8698 9.75258C15.7443 11.5614 13.2522 13.6451 11.172 16.1415C12.6926 15.8665 14.1498 15.7924 15.9554 16.4905C15.9554 16.4905 16.0927 16.4165 16.1666 16.4165Z" fill="url(#paint20_linear_316_5877)"/>
<path id="Vector_22" d="M695.369 7.79607H709.381C713.12 6.96043 716.594 5.92383 720.194 5.63823C722.824 5.42668 724.914 4.8026 727.269 4.31603H703.278C700.786 5.07762 698.146 6.18827 695.654 7.0239C695.105 7.43643 695.517 7.58452 695.38 7.78549L695.369 7.79607Z" fill="url(#paint21_linear_316_5877)"/>
<path id="Vector_23" d="M313.72 220.85H318.577C318.926 220.438 319.622 220.089 319.063 220.089C317.468 219.877 315.525 220.501 313.72 220.85Z" fill="url(#paint22_linear_316_5877)"/>
<path id="Vector_24" d="M1056.93 8.28213C1056.51 8.84275 1057.21 8.84275 1057.48 9.04372C1058.87 9.39278 1060.11 9.53029 1061.37 10.0169C1061.51 10.0169 1061.79 10.0909 1062.07 10.0909C1068.17 11.064 1069.69 13.9094 1074.41 15.6442C1075.66 16.1307 1076.63 16.8289 1078.02 17.2414C1075.11 13.4229 1070.95 10.2919 1065.68 8.14462C1064.99 8.07058 1064.29 8.14462 1063.61 8.07058C1060.97 8.07058 1057.78 7.79556 1056.94 8.28213H1056.93Z" fill="url(#paint23_linear_316_5877)"/>
<path id="Vector_25" d="M842.101 218.28C840.021 218.354 839.472 217.931 839.324 217.381H824.9C825.323 217.593 825.872 217.942 826.146 218.28C826.569 218.492 826.569 219.528 826.146 220.226C826.009 220.575 826.569 220.575 826.569 220.85H848.342C849.725 220.776 851.119 220.639 852.365 220.438C856.114 219.74 856.673 218.566 857.919 217.381H845.016C844.604 217.868 843.907 218.28 842.101 218.28Z" fill="url(#paint24_linear_316_5877)"/>
<path id="Vector_26" d="M6.45225 26.4865C6.37833 26.8356 6.10379 27.3222 6.10379 27.5972C7.3498 27.2481 8.53245 26.6981 8.94427 26.1375C8.11007 26.349 7.21252 26.349 6.45225 26.4865Z" fill="url(#paint25_linear_316_5877)"/>
<path id="Vector_27" d="M715.199 218.904C718.25 219.317 721.017 219.317 723.52 218.904C723.794 218.904 724.354 218.978 724.628 219.041C728.366 218.28 731.429 217.656 734.618 217.37H711.038C711.313 218.269 712.57 218.904 715.199 218.904Z" fill="url(#paint26_linear_316_5877)"/>
<path id="Vector_28" d="M342.356 7.03381C339.241 7.59443 335.978 7.59443 332.789 7.7954H343.116C343.254 7.58385 343.116 7.23479 342.356 7.03381Z" fill="url(#paint27_linear_316_5877)"/>
<path id="Vector_29" d="M1028.92 219.74C1028.78 220.3 1028.5 220.639 1028.22 220.85H1038.62C1038.9 219.666 1041.12 219.528 1044.44 219.74C1043.61 218.904 1042.64 218.143 1042.5 217.381H1029.74C1029.47 218.005 1029.19 218.767 1028.91 219.74H1028.92Z" fill="url(#paint28_linear_316_5877)"/>
<path id="Vector_30" d="M68.9324 7.52105C73.2301 5.16224 75.173 7.03448 78.9216 7.52105C78.0874 7.59509 77.6756 7.7326 76.9787 7.79607H93.4831C95.2887 6.75946 97.1577 5.71227 100.347 5.15166C101.941 5.01415 103.81 4.87664 104.718 4.31603H60.6116C60.2632 4.39007 60.1998 4.39007 59.7141 4.39007C56.5991 4.39007 52.7766 4.04101 52.7766 6.1248C52.4281 8.07109 57.4966 6.26231 59.6402 6.88639C60.8228 7.09795 62.5546 7.58452 64.2124 7.78549H65.1099C66.5671 7.923 67.9504 7.99704 68.9219 7.51047L68.9324 7.52105Z" fill="url(#paint29_linear_316_5877)"/>
</g>
<defs>
<linearGradient id="paint0_linear_316_5877" x1="1077.83" y1="20.4362" x2="1088" y2="20.4362" gradientUnits="userSpaceOnUse">
<stop offset="0.09" stop-color="#CC2200"/>
<stop offset="0.89" stop-color="#CC2200"/>
</linearGradient>
<linearGradient id="paint1_linear_316_5877" x1="794.532" y1="222.998" x2="895.775" y2="222.998" gradientUnits="userSpaceOnUse">
<stop offset="0.09" stop-color="#CC2200"/>
<stop offset="0.89" stop-color="#CC2200"/>
</linearGradient>
<linearGradient id="paint2_linear_316_5877" x1="922.226" y1="127.207" x2="-25.1533" y2="127.207" gradientUnits="userSpaceOnUse">
<stop offset="0.09" stop-color="#CC2200"/>
<stop offset="0.89" stop-color="#CC2200"/>
</linearGradient>
<linearGradient id="paint3_linear_316_5877" x1="4.93148" y1="5.78631" x2="725.737" y2="5.78631" gradientUnits="userSpaceOnUse">
<stop offset="0.09" stop-color="#CC2200"/>
<stop offset="0.89" stop-color="#CC2200"/>
</linearGradient>
<linearGradient id="paint4_linear_316_5877" x1="-0.000790218" y1="126.371" x2="794.256" y2="126.371" gradientUnits="userSpaceOnUse">
<stop offset="0.09" stop-color="#CC2200"/>
<stop offset="0.89" stop-color="#CC2200"/>
</linearGradient>
<linearGradient id="paint5_linear_316_5877" x1="0" y1="21.6522" x2="11.1719" y2="21.6522" gradientUnits="userSpaceOnUse">
<stop offset="0.09" stop-color="#CC2200"/>
<stop offset="0.89" stop-color="#CC2200"/>
</linearGradient>
<linearGradient id="paint6_linear_316_5877" x1="727.258" y1="4.23106" x2="1080.23" y2="4.23106" gradientUnits="userSpaceOnUse">
<stop offset="0.09" stop-color="#CC2200"/>
<stop offset="0.89" stop-color="#CC2200"/>
</linearGradient>
<linearGradient id="paint7_linear_316_5877" x1="902.702" y1="222.036" x2="909.777" y2="222.036" gradientUnits="userSpaceOnUse">
<stop offset="0.09" stop-color="#CC2200"/>
<stop offset="0.89" stop-color="#CC2200"/>
</linearGradient>
<linearGradient id="paint8_linear_316_5877" x1="1083.42" y1="12.2803" x2="1083.98" y2="12.2803" gradientUnits="userSpaceOnUse">
<stop offset="0.09" stop-color="#CC2200"/>
<stop offset="0.89" stop-color="#CC2200"/>
</linearGradient>
<linearGradient id="paint9_linear_316_5877" x1="792.451" y1="219.116" x2="796.886" y2="219.116" gradientUnits="userSpaceOnUse">
<stop offset="0.09" stop-color="#CC2200"/>
<stop offset="0.89" stop-color="#CC2200"/>
</linearGradient>
<linearGradient id="paint10_linear_316_5877" x1="809.895" y1="6.11422" x2="861.932" y2="6.11422" gradientUnits="userSpaceOnUse">
<stop offset="0.09" stop-color="#CC2200"/>
<stop offset="0.89" stop-color="#CC2200"/>
</linearGradient>
<linearGradient id="paint11_linear_316_5877" x1="909.672" y1="219.518" x2="922.955" y2="219.518" gradientUnits="userSpaceOnUse">
<stop offset="0.09" stop-color="#CC2200"/>
<stop offset="0.89" stop-color="#CC2200"/>
</linearGradient>
<linearGradient id="paint12_linear_316_5877" x1="350.266" y1="218.756" x2="369.611" y2="218.756" gradientUnits="userSpaceOnUse">
<stop offset="0.09" stop-color="#CC2200"/>
<stop offset="0.89" stop-color="#CC2200"/>
</linearGradient>
<linearGradient id="paint13_linear_316_5877" x1="489.787" y1="219.116" x2="500.325" y2="219.116" gradientUnits="userSpaceOnUse">
<stop offset="0.09" stop-color="#CC2200"/>
<stop offset="0.89" stop-color="#CC2200"/>
</linearGradient>
<linearGradient id="paint14_linear_316_5877" x1="185.361" y1="217.931" x2="191.538" y2="217.931" gradientUnits="userSpaceOnUse">
<stop offset="0.09" stop-color="#CC2200"/>
<stop offset="0.89" stop-color="#CC2200"/>
</linearGradient>
<linearGradient id="paint15_linear_316_5877" x1="890.084" y1="219.676" x2="902.703" y2="219.676" gradientUnits="userSpaceOnUse">
<stop offset="0.09" stop-color="#CC2200"/>
<stop offset="0.89" stop-color="#CC2200"/>
</linearGradient>
<linearGradient id="paint16_linear_316_5877" x1="664.166" y1="6.90765" x2="679.414" y2="6.90765" gradientUnits="userSpaceOnUse">
<stop offset="0.09" stop-color="#CC2200"/>
<stop offset="0.89" stop-color="#CC2200"/>
</linearGradient>
<linearGradient id="paint17_linear_316_5877" x1="1077.46" y1="28.5705" x2="1082.03" y2="28.5705" gradientUnits="userSpaceOnUse">
<stop offset="0.09" stop-color="#CC2200"/>
<stop offset="0.89" stop-color="#CC2200"/>
</linearGradient>
<linearGradient id="paint18_linear_316_5877" x1="422.407" y1="6.06053" x2="451.583" y2="6.06053" gradientUnits="userSpaceOnUse">
<stop offset="0.09" stop-color="#CC2200"/>
<stop offset="0.89" stop-color="#CC2200"/>
</linearGradient>
<linearGradient id="paint19_linear_316_5877" x1="732.591" y1="219.56" x2="747.691" y2="219.56" gradientUnits="userSpaceOnUse">
<stop offset="0.09" stop-color="#CC2200"/>
<stop offset="0.89" stop-color="#CC2200"/>
</linearGradient>
<linearGradient id="paint20_linear_316_5877" x1="11.172" y1="13.1163" x2="22.8191" y2="13.1163" gradientUnits="userSpaceOnUse">
<stop offset="0.09" stop-color="#CC2200"/>
<stop offset="0.89" stop-color="#CC2200"/>
</linearGradient>
<linearGradient id="paint21_linear_316_5877" x1="695.348" y1="6.06134" x2="727.259" y2="6.06134" gradientUnits="userSpaceOnUse">
<stop offset="0.09" stop-color="#CC2200"/>
<stop offset="0.89" stop-color="#CC2200"/>
</linearGradient>
<linearGradient id="paint22_linear_316_5877" x1="313.72" y1="220.448" x2="319.274" y2="220.448" gradientUnits="userSpaceOnUse">
<stop offset="0.09" stop-color="#CC2200"/>
<stop offset="0.89" stop-color="#CC2200"/>
</linearGradient>
<linearGradient id="paint23_linear_316_5877" x1="1056.8" y1="12.619" x2="1078.01" y2="12.619" gradientUnits="userSpaceOnUse">
<stop offset="0.09" stop-color="#CC2200"/>
<stop offset="0.89" stop-color="#CC2200"/>
</linearGradient>
<linearGradient id="paint24_linear_316_5877" x1="824.9" y1="219.116" x2="857.909" y2="219.116" gradientUnits="userSpaceOnUse">
<stop offset="0.09" stop-color="#CC2200"/>
<stop offset="0.89" stop-color="#CC2200"/>
</linearGradient>
<linearGradient id="paint25_linear_316_5877" x1="6.10379" y1="26.8673" x2="8.95483" y2="26.8673" gradientUnits="userSpaceOnUse">
<stop offset="0.09" stop-color="#CC2200"/>
<stop offset="0.89" stop-color="#CC2200"/>
</linearGradient>
<linearGradient id="paint26_linear_316_5877" x1="711.038" y1="218.29" x2="734.607" y2="218.29" gradientUnits="userSpaceOnUse">
<stop offset="0.09" stop-color="#CC2200"/>
<stop offset="0.89" stop-color="#CC2200"/>
</linearGradient>
<linearGradient id="paint27_linear_316_5877" x1="332.789" y1="7.41461" x2="343.169" y2="7.41461" gradientUnits="userSpaceOnUse">
<stop offset="0.09" stop-color="#CC2200"/>
<stop offset="0.89" stop-color="#CC2200"/>
</linearGradient>
<linearGradient id="paint28_linear_316_5877" x1="1028.22" y1="219.116" x2="1044.45" y2="219.116" gradientUnits="userSpaceOnUse">
<stop offset="0.09" stop-color="#CC2200"/>
<stop offset="0.89" stop-color="#CC2200"/>
</linearGradient>
<linearGradient id="paint29_linear_316_5877" x1="52.7554" y1="6.11423" x2="104.718" y2="6.11423" gradientUnits="userSpaceOnUse">
<stop offset="0.09" stop-color="#CC2200"/>
<stop offset="0.89" stop-color="#CC2200"/>
</linearGradient>
</defs>
</svg>
