<svg width="15" height="16" viewBox="0 0 15 16" fill="none" xmlns="http://www.w3.org/2000/svg">
<g id="Objects">
<g clip-path="url(#clip0_316_6730)">
<path id="Vector_66" d="M7.937 13.6577C7.94277 13.5907 7.95575 13.5537 7.97594 13.5722C7.98315 13.5838 7.9846 13.5722 7.98748 13.5699C7.99181 13.5699 7.99613 13.5699 8.0019 13.5815C8.01344 13.6022 8.02786 13.6508 8.04661 13.7363C7.97306 13.4081 7.97738 13.392 7.93556 13.1077C7.98748 13.3088 7.98892 13.1794 7.99325 13.1239C7.94277 13.0361 7.92835 13.0546 7.90095 13.0754C7.91104 13.1332 7.91681 13.1794 7.92114 13.2163C7.92258 13.2348 7.92402 13.251 7.92402 13.2649L7.92402 13.2857C7.92402 13.2857 7.92258 13.2857 7.92114 13.2857C7.90239 13.2857 7.86201 13.1771 7.83749 13.1216C7.81009 13.0638 7.79567 13.0592 7.78125 13.2071C7.79856 13.2741 7.82307 13.3943 7.85192 13.496C7.88076 13.5976 7.91681 13.6808 7.937 13.6554L7.937 13.6577Z" fill="#CC2200"/>
<path id="Vector_67" d="M8.52252 14.3459L8.49368 14.2119L8.44176 14.8682C8.43743 14.6602 8.47349 14.2489 8.52252 14.3459Z" fill="#CC2200"/>
<path id="Vector_68" d="M8.76186 12.6881C8.8455 12.7922 8.95943 12.5933 9.04452 12.658C8.85271 12.5377 9.10221 12.2694 9.13394 12.0543L9.0128 11.8716C8.85416 11.9919 8.76618 12.5169 8.64648 12.931L8.7633 12.6881L8.76186 12.6881Z" fill="#CC2200"/>
<path id="Vector_69" d="M8.96667 12.3822L8.91043 12.189C8.90466 12.3155 8.84986 12.5776 8.96667 12.3822Z" fill="#CC2200"/>
<path id="Vector_70" d="M8.38371 12.3253C8.28564 12.6476 8.49764 12.1676 8.4414 12.5196C8.44572 12.3916 8.47168 12.259 8.38371 12.3253Z" fill="#CC2200"/>
<path id="Vector_71" d="M9.05074 11.1494C9.00747 11.3967 8.96277 11.6416 8.92383 11.8889L9.06516 11.6485L9.05074 11.1494Z" fill="#CC2200"/>
<path id="Vector_72" d="M9.36617 11.3386C9.34021 11.4265 9.24647 11.5282 9.23493 11.364C9.41665 11.2044 9.3056 10.9338 9.46857 10.7811L9.45126 11.0333C9.57817 11.0957 9.46712 10.492 9.67191 10.6678C9.61567 10.263 9.4253 10.7464 9.43972 10.2861C9.36617 10.6724 9.2407 10.9014 9.11523 11.1767C9.18446 11.1212 9.1859 11.0772 9.25801 10.9824C9.19888 11.2021 9.18157 11.5398 9.12389 11.8012C9.29983 11.7642 9.22772 11.4889 9.36761 11.3363L9.36617 11.3386Z" fill="#CC2200"/>
<path id="Vector_73" d="M9.72114 10.2896C9.80334 10.0724 9.9216 9.73037 9.78748 9.53857C9.59855 9.68184 9.71393 9.83667 9.74566 9.99842C9.69806 10.0469 9.61442 10.2642 9.5625 10.1047C9.60721 10.1001 9.63028 10.345 9.72114 10.2919L9.72114 10.2896Z" fill="#CC2200"/>
<path id="Vector_74" d="M10.0379 9.43146L9.95717 9.1499L9.94419 9.27452L9.8418 9.20067C9.8591 9.23991 10.012 9.4753 9.92689 9.68762C10.0408 9.63685 9.96438 9.51915 10.0379 9.43146Z" fill="#CC2200"/>
<path id="Vector_75" d="M9.38033 8.78349C9.50147 8.68634 9.49282 8.56143 9.51734 8.34863C9.44234 8.6077 9.31832 8.95928 9.35004 9.08188L9.33274 9.04024C9.33274 9.04024 9.32408 9.33631 9.36735 9.58381C9.35581 9.24842 9.65146 8.92227 9.38177 8.78118L9.38033 8.78349Z" fill="#CC2200"/>
<path id="Vector_77" d="M10.243 8.7168L10.0801 9.01393L10.1507 8.96786L10.243 8.7168Z" fill="#CC2200"/>
<path id="Vector_78" d="M9.69058 8.75367C9.8074 8.49255 9.5305 8.80913 9.62424 8.55032C9.63434 8.46482 9.49157 8.93853 9.55214 9.0171C9.59973 8.96857 9.56656 8.67972 9.69058 8.75367Z" fill="#CC2200"/>
<path id="Vector_80" d="M10.6542 7.88517L10.6037 7.76258C10.7609 7.55671 10.807 7.10566 11.0335 7.0756C10.9296 7.02933 10.8993 6.77952 10.7811 6.98307C10.8128 7.06634 10.7796 7.1473 10.8388 7.19125C10.7825 7.27221 10.7277 7.18662 10.6772 7.22826C10.6845 7.47344 10.5273 7.68162 10.5431 7.88748C10.5532 7.80652 10.5763 7.80421 10.6037 7.76489C10.6152 8.1743 10.2936 7.93143 10.4523 8.25988C10.4277 8.09566 10.6325 8.05171 10.6542 7.88979L10.6542 7.88517Z" fill="#CC2200"/>
<path id="Vector_81" d="M10.1632 7.43185L10.0449 7.64444C9.97859 7.47807 10.1516 7.34866 10.081 7.22619C10.0204 7.1846 9.90215 7.39719 9.89639 7.27241C10.1069 7.51735 9.7839 7.61209 10.0781 7.72763C9.99157 8.06501 9.90648 7.69297 9.79687 8.03497L9.88196 8.23832C9.95696 7.81775 10.0824 7.8501 10.1632 7.43416L10.1632 7.43185Z" fill="#CC2200"/>
<path id="Vector_82" d="M10.556 6.55756L10.6728 6.52052L10.5459 6.47422C10.7449 5.93251 11.2843 6.09456 11.3593 5.7311C11.3939 5.20097 11.7501 5.08753 11.9087 4.69398C11.913 4.40923 11.7746 4.8051 11.7155 4.76343C11.577 4.50878 11.8856 4.69167 11.7948 4.44165C11.6881 4.26802 11.4818 4.66852 11.3333 4.74723C11.2843 4.91159 11.3218 4.95326 11.3708 5.07827C11.2871 5.03429 11.2006 5.15698 11.1155 5.11531C11.0737 5.52507 10.8242 5.4834 10.7968 5.9001C10.6627 5.89084 10.8761 5.65471 10.8199 5.73805L10.7507 5.90473L10.7737 5.90473C10.7737 6.23346 10.5098 6.55293 10.3887 6.63627C10.468 6.55525 10.579 6.55756 10.5531 6.72424L10.3973 6.72424L10.4406 7.1803C10.4233 6.84694 10.7406 6.81221 10.556 6.55756Z" fill="#CC2200"/>
<path id="Vector_83" d="M10.2263 6.67773C10.0259 6.97121 10.4066 6.80252 10.2033 7.13989C10.2509 6.99893 10.3028 6.86029 10.3533 6.72164L10.2249 6.67773L10.2263 6.67773Z" fill="#CC2200"/>
<path id="Vector_84" d="M11.1973 5.32018L11.3458 5.24246C11.1554 5.15789 11.2362 5.64478 11.1973 5.32018Z" fill="#CC2200"/>
<path id="Vector_85" d="M11.4766 4.71045L11.5703 4.959L11.566 4.71505L11.4766 4.71045Z" fill="#CC2200"/>
<path id="Vector_86" d="M11.8984 4.36655C11.8898 4.16258 11.7629 4.23363 11.7109 4.39405C11.7787 4.27488 11.8681 4.28405 11.8984 4.36655Z" fill="#CC2200"/>
<path id="Vector_87" d="M12.5932 3.83938C12.4562 4.09083 12.7475 3.66108 12.7634 3.99939C12.7273 3.89196 12.7244 3.66565 12.5932 3.83938Z" fill="#CC2200"/>
<path id="Vector_88" d="M13.3377 3.47881C13.3103 3.59779 13.2685 3.60008 13.2324 3.56805C13.2714 3.51085 13.3074 3.47195 13.3377 3.47881Z" fill="#CC2200"/>
<path id="Vector_89" d="M11.304 6.20557C11.291 6.23732 11.2751 6.27134 11.2578 6.29629C11.2737 6.26454 11.2881 6.23505 11.304 6.20557Z" fill="#CC2200"/>
<path id="Vector_90" d="M11.335 6.14551L11.3047 6.20405C11.3148 6.17928 11.3249 6.16127 11.335 6.14551Z" fill="#CC2200"/>
<path id="Vector_91" d="M12.566 4.49756C12.5588 4.49756 12.5516 4.50198 12.543 4.50198L12.566 4.49756Z" fill="#CC2200"/>
<path id="Vector_92" d="M8.82274 13.4111C8.81409 13.4866 8.80255 13.5461 8.79102 13.5873C8.80111 13.5278 8.81121 13.4706 8.8213 13.4111L8.82274 13.4111Z" fill="#CC2200"/>
<path id="Vector_93" d="M8.57889 13.3838C8.56158 13.2176 8.62937 13.2153 8.71301 13.1691C8.79666 13.1207 8.89184 13.0538 8.90915 12.8184C8.88607 13.0053 8.86011 13.1807 8.82262 13.4115C8.7159 13.4784 8.71013 13.4022 8.70003 13.3561C8.69138 13.3053 8.67984 13.2845 8.57745 13.3861L8.57889 13.3838Z" fill="#CC2200"/>
<path id="Vector_94" d="M9.37305 9.77064C9.37305 9.77064 9.37305 9.75957 9.37305 9.75293C9.37593 9.72417 9.37593 9.74187 9.37305 9.77064Z" fill="#CC2200"/>
<path id="Vector_95" d="M2.5606 9.70573L2.53175 9.76302C2.50002 9.68968 2.46974 9.61405 2.43945 9.53613C2.47839 9.59343 2.52021 9.64843 2.5606 9.70343L2.5606 9.70573Z" fill="#CC2200"/>
<path id="Vector_96" d="M2.53039 9.83629C2.58664 9.95888 2.64144 10.0861 2.70057 10.2064C2.25205 9.72526 1.82084 9.19094 1.41992 8.59186L1.50357 8.57567C1.5252 8.51553 1.76172 8.89487 2.01554 9.24183C2.26648 9.5911 2.52895 9.90799 2.53183 9.83629L2.53039 9.83629Z" fill="#CC2200"/>
<path id="Vector_97" d="M2.63477 9.81645C2.86984 9.71247 2.80638 10.1446 3.03857 10.1377C2.88426 10.1446 2.75158 10.1954 2.67803 10.0175L2.63477 9.81645Z" fill="#CC2200"/>
<path id="Vector_98" d="M3.27734 9.80225C3.32638 9.926 3.45329 9.90309 3.47781 9.98101C3.37397 10.1552 3.32638 9.88933 3.27734 9.80225Z" stroke="#CC2200" stroke-linecap="round" stroke-linejoin="round"/>
<path id="Vector_99" d="M3.76782 9.23535C3.77935 9.24199 3.79089 9.25305 3.79954 9.26412C3.78224 9.26412 3.76637 9.26412 3.75195 9.26854L3.76637 9.23535L3.76782 9.23535Z" fill="#CC2200"/>
<path id="Vector_100" d="M3.75262 9.27002L3.71513 9.35629C3.70647 9.29953 3.72378 9.2791 3.75262 9.27002Z" fill="#CC2200"/>
<path id="Vector_101" d="M3.80078 9.26525C3.83972 9.26525 3.88587 9.26756 3.9176 9.24909L3.89308 9.20752C3.94211 9.22368 4.04018 9.21907 4.04018 9.29065C3.96807 9.19597 3.94211 9.25832 3.8902 9.38303L4.01278 9.52851C3.87289 9.80794 3.9075 9.4015 3.80078 9.26987L3.80078 9.26525Z" fill="#CC2200"/>
<path id="Vector_102" d="M4.23613 9.59098L4.03711 9.63669C4.06307 9.43554 4.1871 9.54297 4.23613 9.59098Z" stroke="#CC2200" stroke-linecap="round" stroke-linejoin="round"/>
<path id="Vector_103" d="M4.3629 9.97983C4.31242 10.0005 4.18551 9.86058 4.23743 10.0142C4.20282 10.028 4.17974 9.99818 4.15234 9.97066C4.25762 10.0119 4.24897 9.72987 4.3629 9.97754L4.3629 9.97983Z" fill="#CC2200"/>
<path id="Vector_104" d="M4.1512 9.9704C4.13822 9.96598 4.12524 9.95934 4.10938 9.94385C4.12524 9.94827 4.13822 9.95934 4.1512 9.9704Z" fill="#CC2200"/>
<path id="Vector_105" d="M2.45913 9.22168C2.4649 9.26279 2.45336 9.28107 2.4375 9.29249L2.45913 9.22168Z" stroke="#CC2200" stroke-linecap="round" stroke-linejoin="round"/>
<path id="Vector_106" d="M4.57227 10.4229L4.62418 10.4703C4.60976 10.4568 4.5939 10.45 4.57948 10.4409L4.57227 10.4229Z" fill="#CC2200"/>
<path id="Vector_107" d="M0 6.41162C0.085088 6.76576 0.170176 7.1199 0.439862 7.47635C0.562446 7.31433 0.556677 7.60597 0.699452 7.46709C0.64465 7.36293 0.669166 7.40923 0.736948 7.52496C0.809057 7.63606 0.918662 7.82586 1.04269 7.99483C1.28497 8.34665 1.5561 8.64524 1.48543 8.46238L1.37871 8.45544L1.55177 8.35822C1.63398 8.5758 1.70464 8.9716 1.84886 8.96466C1.84309 9.01095 1.58639 8.66607 1.35275 8.28416C1.23305 8.09899 1.12489 7.8953 1.0398 7.75642C0.959042 7.6106 0.905682 7.52264 0.905682 7.55042C0.941736 7.37914 1.2619 7.90687 1.62821 8.38369C1.99164 8.86976 2.39112 9.32343 2.43727 9.28871L2.39256 9.43684C2.64638 9.53406 2.85405 9.48314 3.05451 9.56646L3.02279 9.76783C2.92616 9.58498 2.84684 9.65905 2.69541 9.58729C2.91607 9.80024 2.91462 9.9368 3.09057 10.0826C3.17277 9.86505 2.99394 9.83264 3.24776 9.92986C3.27084 10.0826 3.03721 10.1706 3.242 10.321C3.44678 10.6104 3.52466 10.247 3.72945 10.4206L3.62705 10.2099C3.70205 10.2724 3.8578 10.3534 3.88376 10.5409C3.80588 10.446 3.55062 10.3627 3.47274 10.5826C3.57514 10.6196 3.73378 10.8812 3.81165 10.9437L3.70926 11.0525C3.7381 11.2747 3.86646 11.1011 3.9227 11.3302C4.05249 11.3348 3.94289 11.0525 4.01932 11.0409C4.01932 11.1126 4.18229 11.3696 4.28468 11.3279C4.35247 10.9599 4.02221 11.2214 4.015 10.7932L4.17364 11.0154C4.40006 10.7978 3.8852 10.7562 4.03663 10.5525C4.28757 10.3442 4.20104 11.1288 4.47649 10.8164C4.42025 10.6613 4.1621 10.4136 4.23709 10.328C4.28613 10.534 4.43323 10.365 4.576 10.4391L4.67984 10.7284C4.78079 10.6844 4.72887 10.6358 4.70003 10.5224C4.86299 10.9159 5.33026 11.0293 5.58408 11.5478C5.79608 11.6705 5.65619 11.4251 5.78454 11.3858C5.82204 11.6751 6.05567 11.6635 6.16383 11.763C6.19123 11.8047 6.3167 11.6635 6.31237 11.5547L5.9951 11.4367C6.04413 11.3441 6.06144 11.1358 5.95472 11.0756C5.89414 11.5177 5.64609 10.5085 5.48313 10.9251L5.55235 10.7307L5.16152 10.5664L5.16152 10.6011C5.18604 10.5363 4.8255 10.4831 4.6683 10.2308C4.74329 10.2169 5.03317 10.5687 4.92068 10.1891C5.09807 10.1984 5.28988 10.5942 5.57831 10.7353L5.57254 10.5594C5.90857 10.6057 6.19267 11.1682 6.51716 11.3973L6.36285 11.4969C6.44794 11.6612 6.53591 11.932 6.69311 11.8718C6.55754 11.7607 6.66138 11.7214 6.71185 11.6635C6.92674 11.7283 7.15027 12.0778 7.4214 12.2468C7.4214 12.2468 7.39544 12.2723 7.39544 12.3093C7.49495 12.3556 7.59446 12.4042 7.69397 12.4551C7.77041 12.5523 7.72137 12.5477 7.71849 12.6056C7.70695 12.6542 7.69397 12.7167 7.68532 12.7907C7.70118 12.7722 7.71705 12.7954 7.73147 12.6658C7.73147 12.6519 7.73147 12.638 7.72714 12.6472C7.75454 12.5431 7.75022 12.557 7.74877 12.5871C7.74589 12.6171 7.74733 12.6634 7.75743 12.594C7.74589 12.6958 7.73724 12.7676 7.73724 12.8486C7.73579 12.9273 7.74156 13.0176 7.73435 13.1264C7.76608 13.1125 7.76464 13.006 7.76175 12.8995C7.75887 12.7931 7.75743 12.6866 7.76031 12.6357C7.77618 12.7884 7.80646 13.0199 7.86992 13.1449C7.8454 12.9736 7.818 12.9829 7.79781 12.8C7.81079 12.8532 7.82088 12.8532 7.81223 12.7884C7.80069 12.7352 7.7906 12.6866 7.78194 12.6403C7.79781 12.7306 7.81944 12.8069 7.83819 12.8556C7.85694 12.881 7.8627 12.8046 7.84828 12.712L7.82377 12.6449L7.83242 12.6264C7.86271 12.7051 7.89299 12.7861 7.92183 12.8718C7.90309 12.7884 8.00115 12.9273 7.92472 12.7537L7.91462 12.7537C7.90597 12.719 7.89732 12.6889 7.88866 12.6611C7.92183 12.7259 7.95356 12.8 7.9824 12.881C8.01125 12.888 7.98096 12.7653 7.9377 12.675C7.91607 12.6287 7.89299 12.5871 7.87424 12.5616C7.86559 12.5477 7.85838 12.5361 7.85405 12.5292L7.85117 12.5246C7.85117 12.5246 7.85549 12.5014 7.85694 12.4922C7.86271 12.4667 7.86847 12.4435 7.87713 12.4181C7.92616 12.425 7.94347 12.4736 7.94491 12.5454C7.94202 12.594 7.95068 12.5917 7.95356 12.6056C7.95789 12.6171 7.95933 12.631 7.96221 12.6449C7.97375 12.7028 7.98673 12.7815 8.07759 12.9366C8.11941 12.9366 8.17854 12.8694 8.12951 12.7884C8.07038 12.7444 8.06172 12.7722 8.05451 12.8023C8.03432 12.7444 8.03144 12.7097 8.03577 12.6796C8.03577 12.6727 8.03865 12.6658 8.04153 12.6588L8.05596 12.6125C8.07182 12.5639 8.08624 12.513 8.10066 12.4644C8.15979 12.2699 8.2045 12.0848 8.13527 11.9112L7.99683 12.1241C8.05163 11.8047 8.33862 11.7723 8.23911 11.5825L8.39487 11.9714C8.36891 11.5941 8.49726 11.2168 8.4987 10.8765C8.37467 10.777 8.38477 11.2885 8.36602 11.2492L8.31266 11.0478C8.51312 10.659 8.42515 10.9761 8.65446 10.5016L8.57225 10.4321C8.75252 10.3534 8.65157 9.68914 8.8203 10.0433L8.72512 10.1451L8.82896 10.2122C8.86646 9.99004 8.90828 9.77246 8.9501 9.55257C9.0049 9.67293 9.07701 9.36277 9.14912 9.52248L9.13326 9.22853C9.30632 9.24704 9.17075 9.77478 9.2717 9.88588C9.33949 9.93217 9.364 9.82107 9.37121 9.76321C9.39285 10.1127 9.10297 10.0386 9.01932 10.3048L9.0698 10.5085L8.94722 10.4044C8.93712 10.534 8.99192 10.6914 9.02942 10.7678C8.77992 10.8997 8.90539 11.3418 8.75541 11.7121C8.77416 11.3256 8.57514 11.8394 8.55783 11.7607C8.50303 11.9459 8.60975 12.5523 8.41506 12.6079C8.32564 12.675 8.38189 12.3186 8.2867 12.5593C8.25786 12.7421 8.29824 12.8926 8.38621 12.8278C8.35881 13.1194 8.26507 13.3601 8.21171 13.624C8.19585 13.5499 8.17998 13.4805 8.16268 13.4134C8.12085 13.4203 8.11508 13.499 8.1223 13.631C8.13095 13.7606 8.1497 13.9411 8.16844 14.1008C8.14249 14.0406 8.15547 14.1147 8.13095 13.9666C8.10643 13.9388 8.09345 13.9457 8.08768 13.9805C8.0848 13.9967 8.08336 14.0221 8.08336 14.0522L8.08336 14.1008C8.08336 14.1193 8.08191 14.117 8.08047 14.1263C8.06317 14.2258 8.04153 14.4133 7.89587 14.205C7.92616 14.4897 8.05451 14.6656 8.10643 14.6147L8.1396 14.9387C8.17998 14.992 8.2218 15.0429 8.26363 15.0938C8.2694 15.0938 8.27805 15.1216 8.28093 15.1031L8.28815 15.0637L8.30257 14.985L8.33141 14.823C8.35016 14.7142 8.36602 14.6008 8.38044 14.492C8.40785 14.2698 8.43092 14.0545 8.43669 13.8624C8.45111 13.9666 8.46409 14.0777 8.47563 14.1957C8.58235 14.1957 8.56504 14.0476 8.54341 13.9342C8.52466 13.8138 8.4987 13.7235 8.62561 13.7073C8.63571 13.4296 8.52754 13.7745 8.51601 13.543C8.55062 13.4967 8.59965 13.5731 8.65013 13.6333C8.70061 13.6958 8.74964 13.7374 8.79146 13.5893C8.73378 13.9157 8.66888 14.2675 8.59965 14.6286C8.56504 14.8091 8.52899 14.992 8.49438 15.1748L8.44101 15.4503L8.41361 15.5891L8.39919 15.6586C8.39919 15.6586 8.39487 15.684 8.39198 15.691L8.379 15.691C8.06894 15.3137 7.73868 14.9248 7.41275 14.5869C7.39112 14.617 7.42717 14.6748 7.46322 14.7327C7.42573 14.742 7.36083 14.698 7.27574 14.6147C7.23392 14.573 7.18633 14.5244 7.13585 14.4665C7.08538 14.4133 7.02192 14.3439 6.98587 14.2999C6.81569 14.0916 6.60513 13.8346 6.40035 13.5823C5.98212 13.087 5.55812 12.6565 5.43842 12.9088C5.43409 12.8023 5.56389 12.7977 5.43121 12.6958C5.40669 12.7236 5.35622 12.7468 5.3591 12.8532C5.13124 12.2699 4.58177 12.2098 4.25296 11.6612C4.22988 11.7607 4.12605 11.7306 4.10153 11.7954C4.03952 11.4621 3.72801 11.4737 3.64436 11.233L3.64725 11.3765C3.51457 11.2492 3.38044 11.1242 3.24921 10.99C3.22325 11.0154 3.27661 11.071 3.30257 11.1173C3.19729 11.0779 3.22325 10.946 3.24921 10.8488C3.16123 10.865 3.0747 10.8789 2.98673 10.8904C2.80358 10.4437 2.50361 10.1845 2.18921 9.89977C1.87626 9.61738 1.54312 9.30491 1.34266 8.80032C1.17537 8.82809 1.07009 8.77949 0.928757 8.58043L0.964811 8.73088C0.752812 8.62904 1.00375 8.64755 0.853764 8.5133C0.7182 8.46933 0.686472 8.68459 0.843669 8.78643C0.878281 8.94383 0.80473 8.92762 0.734064 8.88133C0.320162 8.14991 0.0360542 7.28424 0 6.41162Z" fill="#CC2200"/>
<path id="Vector_108" d="M14.8522 2.02286C14.7729 1.99045 14.9921 1.76358 14.8133 1.70802C14.5724 1.73117 14.3402 1.98119 14.1167 2.27288C13.8917 2.56457 13.6754 2.89331 13.423 3.07388C13.2572 3.12018 13.2283 3.15722 13.1043 3.2475C13.1173 3.27297 13.1375 3.30306 13.1591 3.3239C13.0538 3.479 12.9284 3.79153 12.787 3.89802C12.7798 3.97673 12.8375 4.11795 12.8692 3.99988C12.7942 4.34945 12.4842 4.25916 12.4654 4.49529C12.5837 4.43047 12.4741 4.72448 12.5938 4.6203C12.4625 4.91662 12.1957 4.53233 12.0501 4.72216C12.0659 4.76383 12.0804 4.8055 12.1107 4.76846C11.8626 4.86801 11.8092 5.63659 11.5958 5.42824L11.6319 5.63196C11.5136 5.669 11.479 5.58566 11.3665 5.74771C11.3434 5.91208 11.4444 5.82874 11.4545 5.91208C11.3492 5.87272 11.2353 6.25007 11.0535 6.27785C10.9194 6.14126 11.3463 6.19219 11.2973 5.90976C11.2742 5.87504 11.2569 5.88893 11.2396 5.91671C11.6304 5.14118 12.2592 4.98376 12.4813 4.26148C12.637 4.24296 12.6096 4.03229 12.5592 3.86098C12.4625 3.91654 12.2159 4.12489 12.3832 4.35871L12.1741 4.40732C12.1453 4.49298 11.9722 4.26611 11.9275 4.26148C12.0169 4.14804 11.9304 3.76838 11.7717 3.8795C11.939 3.48363 12.0775 4.47214 12.1972 4.09017L12.0977 3.8795C12.1323 4.02766 12.3327 3.82625 12.3457 3.66883L12.2996 3.67809C12.8 2.9072 13.3913 1.77979 13.9725 0.967219C14.1672 1.12464 14.2552 0.953329 14.3417 0.765813C14.4297 0.585242 14.5148 0.383836 14.6748 0.529682C14.7167 0.386151 14.4974 0.441712 14.6085 0.237991C14.6647 0.13613 14.7253 0.270401 14.7368 0.314386C14.7513 0.279661 14.7671 0.244936 14.783 0.207896C14.9085 0.448657 14.982 0.717198 14.9964 1.01583C15.0094 1.31447 14.9633 1.6432 14.8508 2.02286L14.8522 2.02286Z" fill="#CC2200"/>
</g>
<rect x="0.5" y="0.5" width="14" height="14.6909" stroke="#CC2200"/>
</g>
<defs>
<clipPath id="clip0_316_6730">
<rect width="15" height="15.6909" fill="white"/>
</clipPath>
</defs>
</svg>
