<svg width="1141" height="272" viewBox="0 0 1141 272" fill="none" xmlns="http://www.w3.org/2000/svg">
<g id="Group">
<path id="Vector" d="M275.913 242.055C274.108 241.357 271.68 242.055 269.748 243.102C268.988 243.663 268.503 244.001 269.263 244.699C270.646 245.883 272.524 245.883 275.153 244.91C278.203 244.35 281.602 243.8 282.711 241.78H281.391C279.66 242.753 277.992 243.451 275.913 242.055Z" fill="#CC2200"/>
<path id="Vector_2" d="M742.542 27.4921C737.137 27.1432 732.704 28.9513 728.123 30.199H736.863C738.246 29.3637 740.188 28.5284 742.542 27.4921Z" fill="#CC2200"/>
<path id="Vector_3" d="M500.575 242.478C504.111 242.827 507.51 243.662 511.532 244.699C512.503 244.35 515.142 244.699 514.097 242.827C513.474 242.616 512.851 242.066 512.218 241.78H499.256C499.879 241.992 499.805 242.404 500.565 242.478H500.575Z" fill="#CC2200"/>
<path id="Vector_4" d="M771.517 21.5807C768.192 21.2318 765.564 21.5807 764.171 23.3888C763.062 24.9855 760.286 26.857 762.788 27.1425C765.142 27.4914 769.586 27.7664 773.048 25.3344C776.236 23.3888 780.394 21.2423 782.896 24.6365C783.445 25.3344 785.113 24.9855 786.633 24.9855C791.351 23.8012 796.059 23.8012 799.669 21.5807C802.297 19.7726 805.77 17.901 810.066 19.7726C811.174 20.3964 813.528 20.3964 815.196 18.9373C817.687 16.7168 817.825 16.4418 821.846 17.5521C827.113 18.4509 833.774 18.25 838.904 17.5521C839.864 17.4146 839.59 16.9282 839.865 16.6533H792.175C792.037 16.7908 791.478 16.8648 791.341 17.0657C785.377 21.5807 778.864 22.2786 771.517 21.5807Z" fill="#CC2200"/>
<path id="Vector_5" d="M887.005 243.652C885.622 243.652 883.543 244.35 883.543 245.386C883.543 245.946 885.2 246.221 886.309 245.946C890.89 245.386 895.735 245.386 900.168 244.35C902.522 243.726 904.052 242.753 904.749 241.78H892.41C891.576 242.827 890.33 243.652 887.005 243.652Z" fill="#CC2200"/>
<path id="Vector_6" d="M435.903 242.816C438.405 245.597 436.801 246.57 436.737 248.516C435.555 248.304 434.521 247.617 433.476 247.955C430.562 249.763 428.694 247.955 425.717 246.57C425.295 250.112 430.562 250.112 434.309 250.81C435.777 251.297 436.463 250.736 437.508 250.599C437.782 251.159 437.856 251.498 438.405 252.195C439.165 251.783 439.439 251.149 439.925 250.599C440.062 250.461 440.136 250.599 440.21 250.599C440.273 250.461 440.073 250.387 440.136 250.387C441.244 248.854 441.593 246.983 439.651 244.001C438.964 242.891 437.919 242.33 436.948 241.78H435.903C435.903 242.193 435.555 242.341 435.903 242.827V242.816Z" fill="#CC2200"/>
<path id="Vector_7" d="M741.58 253.517C740.746 253.517 739.638 253.517 736.176 253.242C738.118 254.141 738.118 254.701 738.667 255.325H751.977C750.457 254.278 747.829 254.004 741.58 253.517Z" fill="#CC2200"/>
<path id="Vector_8" d="M342.877 253.517C343.226 251.995 343.152 250.599 340.101 251.434C337.61 251.783 333.652 252.481 332.332 254.416C332.121 254.765 331.773 254.976 331.572 255.315H343.152C343.363 254.691 343.774 254.067 342.877 253.507V253.517Z" fill="#CC2200"/>
<path id="Vector_9" d="M779.835 253.866C783.719 249.774 778.304 252.343 776.225 252.893C774.145 253.168 772.203 254.352 770.271 255.325H778.864C779.138 254.839 779.413 254.278 779.824 253.866H779.835Z" fill="#CC2200"/>
<path id="Vector_10" d="M332.268 18.8104C334.833 20.1321 336.215 22.2786 341.831 20.407C342.243 18.8104 339.54 19.6457 338.295 19.1593C336.764 18.8104 335.17 18.5989 336.215 17.4252C336.775 16.7273 338.643 16.7273 339.752 17.0763C343.984 18.5989 347.309 16.7273 351.046 16.7273C350.972 16.6533 350.698 16.7273 350.56 16.6533H328.795C329.903 17.4146 330.8 18.1759 332.257 18.8104H332.268Z" fill="#CC2200"/>
<path id="Vector_11" d="M1078.05 253.517C1078.32 252.333 1075.83 252.893 1074.17 252.893C1072.64 252.893 1069.6 252.893 1070.01 254.278C1070.28 254.976 1071.67 255.114 1072.92 255.325H1075C1076.67 254.913 1078.05 254.564 1078.05 253.517Z" fill="#CC2200"/>
<path id="Vector_12" d="M230.723 29.2261H230.649C225.794 26.4452 221.149 23.252 214.077 25.6205C213.666 25.6205 212.346 25.3456 211.924 24.9966C205.274 21.2429 200.83 23.4 193.758 23.4C201.801 26.1069 209.359 28.3274 216.706 29.8606C216.22 29.9346 215.808 30.1355 215.323 30.2095H233.141C232.381 29.7971 231.409 29.7231 230.713 29.2367L230.723 29.2261Z" fill="#CC2200"/>
<path id="Vector_13" d="M791.762 246.782C795.498 246.644 799.805 244.487 803.415 241.78H798.559C796.058 243.451 793.978 245.111 791.762 246.782Z" fill="#CC2200"/>
<path id="Vector_14" d="M94.7155 29.3629C95.8978 27.7662 99.9194 27.7662 101.714 28.8765C103.656 29.7118 105.662 29.9867 107.604 30.1982H119.532C119.743 29.8493 119.12 28.8765 118.487 28.3266C117.104 26.8675 113.768 27.1424 111.277 26.8675C99.1489 25.6198 87.4322 27.4913 75.4411 26.4551C72.2533 25.9687 70.0366 26.8675 69.6144 27.7768C69.2028 29.8598 73.0766 28.8871 74.6072 29.3734C78.1433 30.4202 82.3022 28.6121 86.25 30.2088H92.6994C93.3222 29.9339 94.0822 29.9973 94.705 29.3734L94.7155 29.3629Z" fill="#CC2200"/>
<path id="Vector_15" d="M489.63 16.6533H486.305C487.339 16.7273 488.796 17.0657 489.693 16.7273C489.767 16.7273 489.556 16.7273 489.619 16.6533H489.63Z" fill="#CC2200"/>
<path id="Vector_16" d="M442.563 30.1985H454.554C454.205 29.8496 453.931 29.5747 453.794 29.2257C452.337 27.4916 449.698 27.1427 446.437 27.4916C439.09 28.1895 432.44 27.4916 426.613 22.9132C423.499 20.5552 417.05 19.022 412.817 16.6641H404.922C404.499 18.2607 405.544 20.3437 401.385 20.1323C393.828 19.1595 385.995 21.5914 378.786 18.6096C378.374 18.2607 377.604 18.2607 376.295 18.2607C377.889 20.1323 374.49 22.6382 378.997 23.4736C384.201 24.1714 390.851 24.4464 396.055 23.4736C400.077 22.2893 400.288 22.6383 402.705 24.8587C404.436 26.3179 406.727 26.3179 407.835 25.6941C412.131 23.8225 415.604 25.6941 418.232 27.5022C421.145 29.2363 424.882 29.5112 428.693 30.2091H435.902C437.844 28.6124 440.209 28.9614 442.563 30.2091V30.1985Z" fill="#CC2200"/>
<path id="Vector_17" d="M754.185 247.68C754.185 248.864 755.431 249.414 758.069 249.901C759.874 249.901 761.806 249.414 762.366 248.367C762.64 246.982 759.6 246.982 758.069 246.982C756.402 246.982 753.911 246.57 754.185 247.68Z" fill="#CC2200"/>
<path id="Vector_18" d="M1106.61 32.6944C1104.12 32.9693 1100.93 32.6944 1099.54 34.2276C1100.66 34.8514 1101.89 35.4753 1102.87 36.3106C1107.58 36.3846 1112.02 36.6595 1116.18 34.788C1117.01 34.3016 1118.12 34.1641 1119.36 34.0901C1118.95 33.5297 1118.4 32.9799 1117.98 32.4195C1114.24 32.4195 1110.5 32.282 1106.61 32.6944Z" fill="#CC2200"/>
<path id="Vector_19" d="M1023.98 29.2261C1019.13 26.4452 1014.56 23.252 1007.49 25.6205C1006.93 25.6205 1005.68 25.3456 1005.27 24.9966C998.62 21.2429 994.186 23.4 987.104 23.4C995.147 26.1069 1002.77 28.3274 1009.98 29.8606C1009.57 29.9346 1009.14 30.1355 1008.59 30.2095H1026.48C1025.64 29.7971 1024.82 29.7231 1023.98 29.2367V29.2261Z" fill="#CC2200"/>
<path id="Vector_20" d="M938.442 246.221C937.196 244.212 933.175 243.515 930.673 243.166C927.633 242.468 927.633 243.79 928.045 245.386C925.416 247.12 928.045 249.066 932.066 250.25C936.5 251.297 941.355 251.297 945.926 251.783C947.034 252.132 948.691 251.783 948.691 251.297C948.691 250.25 946.612 249.563 945.229 249.563C940.373 249.563 939.54 248.03 938.431 246.232L938.442 246.221Z" fill="#CC2200"/>
<path id="Vector_21" d="M894.911 253.232C896.294 252.883 896.579 251.773 895.745 251.773C892.558 251.424 888.948 252.534 885.211 253.507C888.261 255.103 891.449 254.754 894.911 253.232Z" fill="#CC2200"/>
<path id="Vector_22" d="M557.354 30.1985C552.013 28.0415 546.682 25.821 541.204 23.8119C536.211 22.2893 531.978 20.4072 527.693 18.2607C526.299 17.5628 525.613 17.1505 524.568 16.6641H513.896C524.853 20.7561 539.758 25.969 552.92 30.2091H557.354V30.1985Z" fill="#CC2200"/>
<path id="Vector_23" d="M645.631 30.1983C652.703 28.4642 671.281 22.416 687.769 16.6533H679.736C678.617 17.0023 677.794 17.5521 676.685 17.901C666.014 21.9296 655.606 25.9582 645.631 30.1878V30.1983Z" fill="#CC2200"/>
<path id="Vector_24" d="M637.039 27.1431C637.314 26.4452 636.068 25.335 635.234 25.335C632.881 25.335 630.516 25.6099 627.339 27.1431C624.985 28.1159 622.758 29.0887 620.541 30.1989H630.104C630.938 29.7865 631.909 29.3001 632.88 28.8772C634.411 28.6023 636.902 28.3168 637.039 27.1431Z" fill="#CC2200"/>
<path id="Vector_25" d="M888.113 29.3629C889.221 27.7662 893.243 27.7662 895.185 28.8765C896.99 29.7118 898.932 29.9867 901.012 30.1982H912.929C913.066 29.8493 912.517 28.8765 911.82 28.3266C910.438 26.8675 907.102 27.1424 904.611 26.8675C892.546 25.6198 880.914 27.4913 868.838 26.4551C865.513 25.9687 863.434 26.8675 863.022 27.7768C862.6 29.8598 866.484 28.8871 868.015 29.3734C871.477 30.4202 875.636 28.6121 879.668 30.2088H886.044C886.74 29.9339 887.574 29.9973 888.123 29.3734L888.113 29.3629Z" fill="#CC2200"/>
<path id="Vector_26" d="M1124.08 223.583C1124.08 241.082 1106.2 255.315 1084.3 255.315H1075.01C1074.6 255.452 1074.73 255.664 1074.18 255.801C1073.63 255.801 1073.48 255.452 1072.93 255.315H778.884C777.49 258.095 776.667 261.289 770.292 262.399C766.819 262.748 763.357 263.647 759.335 264.556C758.913 264.482 758.501 264.482 758.089 264.482C755.461 264.894 752.548 264.894 749.497 264.345C745.761 264.345 743.956 263.308 744.504 261.426C745.19 259.269 742.003 259.269 737.844 259.618C739.237 257.947 739.786 256.7 738.678 255.315H343.172C342.823 256.562 341.441 257.673 338.738 258.444C334.305 259.481 329.523 259.481 324.942 259.967C323.834 260.179 322.166 259.967 322.166 259.481C322.166 258.444 324.172 257.747 325.702 257.747C329.513 257.747 330.695 256.636 331.592 255.315H55.6805C33.7778 255.315 15.96 241.082 15.96 223.583V48.2482C15.96 30.8226 33.7778 16.6537 55.6805 16.6537H328.806C326.241 14.8456 323.887 12.974 319.379 12.1387C317.026 11.9272 312.729 12.1387 314.112 9.98165C314.946 9.3578 318.271 9.70673 321.047 9.70673C333.598 10.4046 346.697 10.6795 358.762 8.45903C361.538 9.3578 356.408 11.1659 361.95 11.1659C365.212 11.1659 369.159 10.6795 369.233 13.0375C369.719 15.5329 364.314 13.3124 362.098 14.0843C359.322 14.7822 354.54 16.3788 352.397 14.7821C347.89 12.1387 345.747 14.3698 341.863 14.7821C345.325 15.48 348.238 15.48 350.592 16.6537H404.943C405.017 16.3788 404.869 16.0933 405.08 15.8924C405.914 14.7822 408.964 14.0843 410.632 15.5435C411.118 16.0299 412.152 16.2413 412.849 16.6537H486.326C484.035 16.5163 481.819 16.3788 479.465 16.3788C473.649 15.8924 468.719 13.048 463.304 12.6251C457.414 12.1387 452.77 10.4046 447.365 9.3578C443.903 8.79739 441.412 7.76116 443.207 6.37599C443.903 3.32017 449.033 2.97123 456.38 5.47722C462.618 7.77173 468.371 9.99223 475.929 9.71731C479.465 9.71731 484.732 12.6357 489.028 14.3698C490.485 15.2685 490.485 15.829 489.651 16.6643H513.918C511.216 15.6175 507.965 14.4438 506.023 13.6825C515.523 12.7097 517.254 12.8471 524.601 16.6643H679.778C683.377 15.3426 686.987 14.0208 690.175 12.2867C700.847 6.66148 701.121 6.66148 711.941 7.77173C706.536 9.99223 697.522 13.323 687.811 16.6643H792.216C796.237 14.1689 803.858 12.8471 807.32 9.71731C808.988 8.19468 812.039 8.95599 812.873 9.99223C814.118 11.5889 811.754 14.5707 816.472 14.2323C824.104 13.3335 831.999 15.6915 839.219 12.6991C839.494 12.2867 840.328 12.2867 841.711 12.2867C840.328 13.8199 841.299 15.48 839.906 16.6643H1084.33C1098.89 16.6643 1111.09 23.1883 1118.02 32.4298C1125.37 32.5038 1132.72 32.7787 1140.06 32.3558V27.9148C1140.06 24.2351 1139.1 20.6929 1137.57 17.3622C1136.19 17.4362 1134.8 17.6371 1133.27 17.0872C1132.16 16.7383 1130.08 16.7383 1129.67 17.4362C1128.69 18.6204 1130.08 18.8213 1131.75 19.1703C1132.99 19.6567 1135.62 18.8213 1135.34 20.418C1129.67 22.2895 1128.27 20.1431 1125.78 18.8213C1120.79 16.7383 1119.27 13.3335 1112.75 12.1599C1110.39 11.9484 1106.08 12.1599 1107.48 10.0028C1108.31 9.37895 1111.77 9.72788 1114.4 9.72788C1120.22 10.0028 1126.06 10.2143 1131.87 10.1403C1125.77 4.02861 1116.9 0 1106.63 0H1099.71C1098.04 0.137459 1096.66 -1.57562e-08 1094.99 0.211476C1093.32 0.69787 1091.8 0.56041 1090.97 0H1077.93C1075.44 0.56041 1071.83 0.69787 1069.34 1.5332C1065.74 2.29451 1061.03 1.5332 1061.03 0H780.699C781.259 0.835329 782.093 1.87156 782.642 2.29451C783.887 4.16607 783.887 5.13886 781.671 4.78992C779.454 3.95459 776.826 3.2673 774.324 2.43197C773.49 2.84435 772.244 3.19328 770.587 3.47878C765.183 4.52558 760.602 6.25968 754.648 6.67206C749.244 7.23247 744.251 10.0028 738.424 10.5632C734.962 10.5632 730.941 11.8849 728.312 10.9121C727.193 10.0134 727.478 9.45296 728.861 8.48017C733.294 6.67206 738.424 3.82771 742.024 3.82771C749.096 4.17664 754.648 2.09361 760.464 0.0105738H409.249C410.643 1.3323 411.814 2.92894 414.939 3.34132C416.881 3.61623 415.15 4.8005 413.556 4.8005C410.432 5.14943 407.043 5.14943 403.433 4.52558C396.087 3.34132 388.74 1.54377 381.045 1.54377C371.197 1.26885 361.422 0.78246 351.658 0.0105738H306.322C304.792 0.148033 303.272 0.0105738 301.752 0.222049C300.021 0.708444 298.427 0.570984 297.667 0.0105738H284.567C282.076 0.570984 278.466 0.708444 275.975 1.54377C272.439 2.30508 267.583 1.54377 267.657 0.0105738H33.2922C21.1639 -0.0105738 10.9778 5.6887 5.15111 13.8728C8.47611 12.6885 11.9489 11.5149 13.9544 9.70673C15.6222 8.18411 18.5989 8.94542 19.4961 9.98165C20.7417 11.5783 18.3139 14.5601 23.1694 14.2217C30.6533 13.323 38.4856 15.6809 45.695 12.6885C46.1067 12.2762 46.8033 12.2762 48.1861 12.2762C46.6661 14.2217 49.9911 16.7172 45.5472 17.5525C40.3433 18.2504 33.6194 18.4513 28.4261 17.5525C24.4783 16.4422 24.2672 16.7172 21.8394 18.9376C20.1717 20.3968 17.7544 20.3968 16.7094 19.773C12.3394 17.9014 8.95111 19.773 6.31222 21.5811C4.71833 22.4799 2.91333 22.9028 1.10833 23.3152C0.76 24.8378 0 26.297 0 27.8936V32.6836C3.18778 32.5461 6.31222 32.2712 9.42611 31.5733C8.10667 33.0325 4.37 34.2802 0 35.3905V243.99C0 259.47 14.9044 271.979 33.2711 271.979H177.872C179.117 270.446 179.328 269.198 174.758 267.252C178.22 267.601 179.265 267.601 180.162 267.601C189.588 268.299 191.256 268.648 192.291 271.979H314.091C314.439 271.979 314.651 271.767 314.925 271.841C315.062 271.841 315.136 271.979 315.199 271.979H375.229C375.366 271.841 374.881 271.63 375.155 271.63C375.567 271.63 376.263 271.979 376.886 271.979H507.342C504.714 270.245 502.212 268.648 503.046 267.326C504.08 265.941 508.451 268.511 512.335 270.382C513.443 270.795 514.625 271.418 515.797 271.979H832.211C829.582 270.446 828.474 268.162 831.239 263.858C832.21 262.399 833.319 261.077 834.987 261.014C836.232 260.527 835.536 261.775 834.987 262.748C831.239 266.914 836.517 266.988 832.485 271.979H871.72C876.85 271.63 881.706 270.795 886.973 270.382C885.442 271.281 883.922 271.418 882.254 271.979H912.338C916.771 270.932 921.352 270.245 925.511 268.849C927.168 268.5 928.139 268.849 928.139 269.547C928.139 270.583 927.168 271.492 925.511 271.979H938.547C935.074 270.932 934.526 269.409 932.858 267.95C931.327 266.216 932.858 266.216 935.212 266.216C936.457 266.216 938.125 265.518 938.125 265.032C938.399 263.086 940.901 264.334 942.558 264.334C945.609 264.546 945.187 265.867 945.609 266.555C946.854 267.665 946.158 269.684 949.905 269.684C953.642 269.758 952.533 267.95 952.956 266.977C952.122 265.032 953.367 263.647 955.869 263.647C959.89 263.086 963.49 265.518 966.678 266.565C970.699 267.675 967.227 268.299 966.541 269.695C966.118 269.769 966.118 271.08 966.541 271.778C966.541 271.852 966.403 271.852 966.403 271.989H1049.17C1049.17 271.852 1048.89 271.989 1048.89 271.778C1049.87 269.209 1053.75 271.292 1056.53 271.08C1057.91 270.245 1059.29 269.758 1060.82 269.695C1062.21 269.695 1063.45 269.695 1064.15 270.255C1065.26 271.091 1064.01 271.302 1063.18 271.789C1062.9 271.863 1062.9 272 1062.63 272H1106.57C1125.16 272 1139.98 259.502 1139.98 244.011V54.0849C1139.43 53.8734 1138.73 54.0849 1138.46 53.387C1137.76 52.6257 1138.73 52.4883 1139.98 52.3402V35.401C1137.35 35.401 1134.44 34.9887 1131.67 36.0249C1129.32 36.9977 1125.71 37.8964 1123.21 35.1896C1122.51 34.3542 1120.99 34.0053 1119.32 34.0793C1122.1 38.3828 1124.04 43.1093 1124.04 48.2482V223.583H1124.08ZM855.95 5.33976C861.492 5.33976 856.362 3.4682 859.138 2.55886C871.203 4.77935 884.376 4.50443 896.853 3.80656C899.618 3.80656 902.954 3.45763 903.777 4.1555C905.16 6.23853 900.864 5.96361 898.51 6.23853C891.997 7.4228 890.467 10.891 885.622 12.974C883.12 14.2217 881.737 16.4422 876.058 14.5707C875.636 12.974 878.412 13.7353 879.668 13.323C881.199 12.974 882.708 12.6991 881.748 11.5889C881.199 10.891 879.246 10.891 878.138 11.1765C873.979 12.6991 870.654 10.9016 866.907 10.9016C869.26 9.44239 872.311 9.71731 876.058 8.95599C872.174 8.4696 870.094 6.24911 865.524 8.95599C863.444 10.5526 858.589 8.956 855.813 8.19468C853.596 7.43337 848.192 9.71731 848.603 7.22189C848.74 4.78992 852.762 5.35033 855.95 5.35033V5.33976ZM62.6156 5.33976C68.1572 5.33976 62.9639 3.4682 65.8033 2.55886C77.8683 4.77935 90.8939 4.50443 103.518 3.80656C106.157 3.80656 109.546 3.45763 110.453 4.1555C111.773 6.23853 107.54 5.96361 105.112 6.23853C98.6628 7.4228 97.1428 10.891 92.2239 12.974C89.7328 14.2217 88.2761 16.4422 82.6605 14.5707C82.3122 12.974 85.0144 13.7353 86.2705 13.323C87.7905 12.974 89.3211 12.6991 88.2761 11.5889C87.7905 10.891 85.785 10.891 84.74 11.1765C80.5811 12.6991 77.1822 10.9016 73.3717 10.9016C75.8628 9.44239 79.0505 9.71731 82.6605 8.95599C78.7761 8.4696 76.7705 6.24911 72.2633 8.95599C70.0467 10.5526 65.265 8.956 62.415 8.19468C60.1983 7.43337 54.8572 9.71731 55.2794 7.22189C55.3533 4.78992 59.2272 5.35033 62.6261 5.35033L62.6156 5.33976ZM196.608 263.858C194.043 263.509 192.723 262.811 192.723 261.701C192.449 260.517 194.94 261.003 196.608 261.003C198.276 261.003 201.252 261.003 200.904 262.462C200.418 263.509 198.476 263.848 196.608 263.848V263.858ZM333.45 267.263C329.988 268.722 326.863 269.071 323.813 267.612C327.56 266.565 331.086 265.529 334.284 265.74C335.181 265.74 334.843 266.988 333.45 267.263ZM384.539 265.878C379.958 265.391 375.176 265.391 370.669 264.345C366.584 263.16 363.945 261.077 366.584 259.343C366.172 257.884 366.236 256.499 369.286 257.26C371.714 257.535 375.873 258.307 377.055 260.316C378.163 262.124 378.997 263.647 383.842 263.647C385.225 263.647 387.241 264.345 387.241 265.381C387.241 265.867 385.647 266.079 384.539 265.867V265.878ZM512.852 269.758C510.91 269.758 508.968 269.409 508.619 268.299C508.208 266.914 511.184 266.914 512.852 266.914C514.52 266.914 517.011 266.428 516.663 267.612C516.663 268.722 515.417 269.42 512.852 269.769V269.758ZM529.139 271.429C523.798 268.511 515.966 269.557 513.201 262.473C517.634 262.959 522.426 266.29 527.271 268.172C529.351 268.87 530.733 270.044 530.733 271.091C531.082 271.852 530.184 272.201 529.139 271.44V271.429ZM778.725 267.337C778.029 268.172 778.029 268.86 777.48 269.557C776.097 271.852 773.047 271.852 767.494 270.393C773.036 268.86 775.812 267.337 769.025 265.952C768.328 265.391 766.945 265.191 768.054 264.355C768.75 263.657 769.996 263.657 771.379 263.657C772.762 263.869 774.429 264.355 775.812 265.18C778.441 265.391 782.325 263.308 783.296 265.941C784.542 267.326 779.686 266.639 778.715 267.326L778.725 267.337ZM899.344 262.124C897.687 263.657 897.402 265.391 893.106 266.29C886.308 266.988 879.658 267.337 872.723 268.511C868.289 269.209 864.405 268.86 865.651 265.941C866.199 265.18 866.199 263.858 865.651 263.647C864.954 262.462 861.629 261.775 865.513 260.665C868.838 259.618 872.311 257.197 876.322 257.747C878.951 257.747 880.059 259.28 879.235 261.077C879.658 262.114 878.539 263.858 882.286 263.647C886.023 263.647 885.337 261.775 886.445 260.665C886.994 259.967 886.445 258.793 889.633 258.444C891.438 258.444 893.792 257.197 894.066 259.28C894.066 259.629 895.723 260.39 896.842 260.39C899.333 260.39 901.001 260.39 899.333 262.124H899.344ZM937.333 259.142C936.088 258.793 935.665 257.546 936.499 257.546C939.687 257.271 943.424 258.444 947.034 259.354C943.983 261.024 940.933 260.676 937.333 259.142ZM1094.41 265.529C1090.25 265.042 1087.05 265.042 1087.75 267.337C1088.3 269.209 1086.5 270.255 1082.76 270.255C1078.74 271.091 1074.16 271.302 1071.39 269.695C1069.73 268.86 1069.59 266.988 1073.89 267.337C1077.22 267.337 1077.77 266.988 1078.05 265.529C1079.29 260.316 1079.71 260.316 1090.66 259.343C1091.5 259.343 1092.61 259.343 1096.07 259.132C1089.83 261.775 1092.46 263.086 1094.41 265.518V265.529Z" fill="#CC2200"/>
<path id="Vector_27" d="M754.183 259.629C754.458 261.088 755.155 261.437 758.48 261.437C758.754 261.437 758.617 261.574 758.902 261.574C762.786 259.703 766.386 257.271 770.27 255.325H751.967C753.212 256.161 753.635 257.271 754.183 259.629Z" fill="#CC2200"/>
<path id="Vector_28" d="M1135.59 14.7822H1135.31C1135.45 14.9197 1135.59 14.9197 1135.74 14.9197C1135.74 14.7822 1135.6 14.7822 1135.6 14.7822H1135.59Z" fill="#CC2200"/>
</g>
</svg>
