<svg width="15" height="16" viewBox="0 0 15 16" fill="none" xmlns="http://www.w3.org/2000/svg">
<g id="OBJECTS">
<g clip-path="url(#clip0_316_6125)">
<path id="Vector" d="M7.937 13.3378C7.94277 13.2723 7.95575 13.2362 7.97594 13.2542C7.98315 13.2655 7.9846 13.2542 7.98748 13.252C7.99181 13.252 7.99613 13.252 8.0019 13.2633C8.01344 13.2836 8.02786 13.3311 8.04661 13.4147C7.97306 13.0938 7.97738 13.078 7.93556 12.8001C7.98748 12.9967 7.98892 12.8702 7.99325 12.8159C7.94277 12.7301 7.92835 12.7481 7.90095 12.7685C7.91104 12.825 7.91681 12.8702 7.92114 12.9063C7.92258 12.9244 7.92402 12.9402 7.92402 12.9537L7.92402 12.9741C7.92402 12.9741 7.92258 12.9741 7.92114 12.9741C7.90239 12.9741 7.86201 12.8679 7.83749 12.8137C7.81009 12.7572 7.79567 12.7527 7.78125 12.8973C7.79856 12.9628 7.82307 13.0803 7.85192 13.1797C7.88076 13.2791 7.91681 13.3604 7.937 13.3356L7.937 13.3378Z" fill="#CC2200"/>
<path id="Vector_2" d="M8.52252 14.0093L8.49368 13.8783L8.44176 14.5199C8.43743 14.3166 8.47349 13.9144 8.52252 14.0093Z" fill="#CC2200"/>
<path id="Vector_3" d="M8.76186 12.3907C8.8455 12.4924 8.95943 12.2981 9.04452 12.3613C8.85271 12.2438 9.10221 11.9817 9.13394 11.7716L9.0128 11.5931C8.85416 11.7106 8.76618 12.2235 8.64648 12.6279L8.7633 12.3907L8.76186 12.3907Z" fill="#CC2200"/>
<path id="Vector_4" d="M8.96667 12.0918L8.91043 11.9027C8.90466 12.0265 8.84986 12.2832 8.96667 12.0918Z" fill="#CC2200"/>
<path id="Vector_5" d="M8.38371 12.036C8.28564 12.3522 8.49764 11.8813 8.4414 12.2266C8.44572 12.101 8.47168 11.971 8.38371 12.036Z" fill="#CC2200"/>
<path id="Vector_6" d="M9.05074 10.8878C9.00747 11.1296 8.96277 11.3691 8.92383 11.6108L9.06516 11.3758L9.05074 10.8878Z" fill="#CC2200"/>
<path id="Vector_7" d="M9.36617 11.0728C9.34021 11.1587 9.24647 11.2581 9.23493 11.0976C9.41665 10.9418 9.3056 10.6774 9.46857 10.5283L9.45126 10.7746C9.57817 10.8356 9.46712 10.2459 9.67191 10.4176C9.61567 10.0222 9.4253 10.4944 9.43972 10.0448C9.36617 10.4221 9.2407 10.6458 9.11523 10.9146C9.18446 10.8604 9.1859 10.8175 9.25801 10.7249C9.19888 10.9395 9.18157 11.2694 9.12389 11.5247C9.29983 11.4885 9.22772 11.2197 9.36761 11.0705L9.36617 11.0728Z" fill="#CC2200"/>
<path id="Vector_8" d="M9.72114 10.049C9.80334 9.8366 9.9216 9.50222 9.78748 9.3147C9.59855 9.45478 9.71393 9.60615 9.74566 9.7643C9.69806 9.81175 9.61442 10.0241 9.5625 9.86823C9.60721 9.86371 9.63028 10.1032 9.72114 10.0512L9.72114 10.049Z" fill="#CC2200"/>
<path id="Vector_9" d="M10.0379 9.21058L9.95717 8.93494L9.94419 9.05694L9.8418 8.98464C9.8591 9.02305 10.012 9.2535 9.92689 9.46136C10.0408 9.41166 9.96438 9.29643 10.0379 9.21058Z" fill="#CC2200"/>
<path id="Vector_10" d="M9.38033 8.57771C9.50147 8.48282 9.49282 8.36081 9.51734 8.15295C9.44234 8.406 9.31832 8.74942 9.35004 8.86916L9.33274 8.82849C9.33274 8.82849 9.32408 9.11769 9.36735 9.35944C9.35581 9.03183 9.65146 8.71327 9.38177 8.57545L9.38033 8.57771Z" fill="#CC2200"/>
<path id="Vector_11" d="M10.243 8.51233L10.0801 8.80378L10.1507 8.7586L10.243 8.51233Z" fill="#CC2200"/>
<path id="Vector_12" d="M9.69058 8.54835C9.8074 8.29304 9.5305 8.60257 9.62424 8.34953C9.63434 8.26593 9.49157 8.72909 9.55214 8.80591C9.59973 8.75847 9.56656 8.47605 9.69058 8.54835Z" fill="#CC2200"/>
<path id="Vector_13" d="M10.6542 7.70039L10.6037 7.58065C10.7609 7.37957 10.807 6.939 11.0335 6.90963C10.9296 6.86444 10.8993 6.62043 10.7811 6.81926C10.8128 6.90059 10.7796 6.97967 10.8388 7.02259C10.7825 7.10167 10.7277 7.01808 10.6772 7.05874C10.6845 7.29823 10.5273 7.50157 10.5431 7.70265C10.5532 7.62358 10.5763 7.62132 10.6037 7.58291C10.6152 7.98281 10.2936 7.74558 10.4523 8.0664C10.4277 7.90599 10.6325 7.86307 10.6542 7.70491L10.6542 7.70039Z" fill="#CC2200"/>
<path id="Vector_14" d="M10.1632 7.25771L10.0449 7.46557C9.97859 7.3029 10.1516 7.17638 10.081 7.05663C10.0204 7.01597 9.90215 7.22382 9.89639 7.10182C10.1069 7.34131 9.7839 7.43394 10.0781 7.54691C9.99157 7.87677 9.90648 7.51302 9.79687 7.8474L9.88196 8.04622C9.95696 7.63502 10.0824 7.66665 10.1632 7.25997L10.1632 7.25771Z" fill="#CC2200"/>
<path id="Vector_15" d="M10.556 6.40339L10.6728 6.36722L10.5459 6.32202C10.7449 5.79311 11.2843 5.95133 11.3593 5.59646C11.3939 5.07885 11.7501 4.9681 11.9087 4.58385C11.913 4.30583 11.7746 4.69234 11.7155 4.65166C11.577 4.40302 11.8856 4.58159 11.7948 4.33747C11.6881 4.16795 11.4818 4.55898 11.3333 4.63583C11.2843 4.79632 11.3218 4.837 11.3708 4.95906C11.2871 4.91611 11.2006 5.03591 11.1155 4.99522C11.0737 5.3953 10.8242 5.35461 10.7968 5.76146C10.6627 5.75242 10.8761 5.52187 10.8199 5.60324L10.7507 5.76598L10.7737 5.76598C10.7737 6.08695 10.5098 6.39887 10.3887 6.48024C10.468 6.40113 10.579 6.40339 10.5531 6.56613L10.3973 6.56613L10.4406 7.01141C10.4233 6.68593 10.7406 6.65202 10.556 6.40339Z" fill="#CC2200"/>
<path id="Vector_16" d="M10.2263 6.521C10.0259 6.80793 10.4066 6.643 10.2033 6.97286C10.2509 6.83504 10.3028 6.69948 10.3533 6.56392L10.2249 6.521L10.2263 6.521Z" fill="#CC2200"/>
<path id="Vector_17" d="M11.1973 5.1957L11.3458 5.11947C11.1554 5.03651 11.2362 5.5141 11.1973 5.1957Z" fill="#CC2200"/>
<path id="Vector_18" d="M11.4766 4.59973L11.5703 4.84189L11.566 4.60422L11.4766 4.59973Z" fill="#CC2200"/>
<path id="Vector_19" d="M11.8984 4.26423C11.8898 4.06467 11.7629 4.13418 11.7109 4.29114C11.7787 4.17454 11.8681 4.18351 11.8984 4.26423Z" fill="#CC2200"/>
<path id="Vector_20" d="M12.5932 3.7493C12.4562 3.99594 12.7475 3.57441 12.7634 3.90626C12.7273 3.80087 12.7244 3.57889 12.5932 3.7493Z" fill="#CC2200"/>
<path id="Vector_21" d="M13.3377 3.39725C13.3103 3.51385 13.2685 3.51609 13.2324 3.4847C13.2714 3.42864 13.3074 3.39053 13.3377 3.39725Z" fill="#CC2200"/>
<path id="Vector_22" d="M11.304 6.05981C11.291 6.09121 11.2751 6.12484 11.2578 6.1495C11.2737 6.11811 11.2881 6.08896 11.304 6.05981Z" fill="#CC2200"/>
<path id="Vector_23" d="M11.335 6.0011L11.3047 6.05863C11.3148 6.03429 11.3249 6.01659 11.335 6.0011Z" fill="#CC2200"/>
<path id="Vector_24" d="M12.566 4.39172C12.5588 4.39172 12.5516 4.39615 12.543 4.39615L12.566 4.39172Z" fill="#CC2200"/>
<path id="Vector_25" d="M8.82274 13.0962C8.81409 13.1702 8.80255 13.2285 8.79102 13.2688C8.80111 13.2105 8.81121 13.1545 8.8213 13.0962L8.82274 13.0962Z" fill="#CC2200"/>
<path id="Vector_26" d="M8.57889 13.0711C8.56158 12.9084 8.62937 12.9062 8.71301 12.861C8.79666 12.8136 8.89184 12.748 8.90915 12.5176C8.88607 12.7006 8.86011 12.8723 8.82262 13.0982C8.7159 13.1637 8.71013 13.0892 8.70003 13.044C8.69138 12.9943 8.67984 12.974 8.57745 13.0734L8.57889 13.0711Z" fill="#CC2200"/>
<path id="Vector_27" d="M9.37305 9.54224C9.37305 9.54224 9.37305 9.53118 9.37305 9.52454C9.37593 9.49577 9.37593 9.51348 9.37305 9.54224Z" fill="#CC2200"/>
<path id="Vector_28" d="M2.5606 9.47842L2.53175 9.53448C2.50002 9.46273 2.46974 9.38874 2.43945 9.3125C2.47839 9.36856 2.52021 9.42237 2.5606 9.47618L2.5606 9.47842Z" fill="#CC2200"/>
<path id="Vector_29" d="M2.53039 9.60581C2.58664 9.72555 2.64144 9.84981 2.70057 9.9673C2.25205 9.49736 1.82084 8.97545 1.41992 8.39029L1.50357 8.37447C1.5252 8.31573 1.76172 8.68626 2.01554 9.02516C2.26648 9.36632 2.52895 9.67585 2.53183 9.60581L2.53039 9.60581Z" fill="#CC2200"/>
<path id="Vector_30" d="M2.63477 9.58599C2.86984 9.48432 2.80638 9.90682 3.03857 9.90004C2.88426 9.90682 2.75158 9.95652 2.67803 9.78255L2.63477 9.58599Z" fill="#CC2200"/>
<path id="Vector_31" d="M3.27734 9.57239C3.32638 9.69347 3.45329 9.67105 3.47781 9.74728C3.37397 9.91769 3.32638 9.65759 3.27734 9.57239Z" stroke="#CC2200" stroke-linecap="round" stroke-linejoin="round"/>
<path id="Vector_32" d="M3.76782 9.01855C3.77935 9.02519 3.79089 9.03626 3.79954 9.04732C3.78224 9.04732 3.76637 9.04732 3.75195 9.05174L3.76637 9.01855L3.76782 9.01855Z" fill="#CC2200"/>
<path id="Vector_33" d="M3.75262 9.05249L3.71513 9.13769C3.70647 9.08164 3.72378 9.06146 3.75262 9.05249Z" fill="#CC2200"/>
<path id="Vector_34" d="M3.80078 9.04794C3.83972 9.04794 3.88587 9.0502 3.9176 9.03212L3.89308 8.99146C3.94211 9.00727 4.04018 9.00275 4.04018 9.07279C3.96807 8.98016 3.94211 9.04116 3.8902 9.16316L4.01278 9.3055C3.87289 9.57888 3.9075 9.18124 3.80078 9.05246L3.80078 9.04794Z" fill="#CC2200"/>
<path id="Vector_35" d="M4.23613 9.36609L4.03711 9.41093C4.06307 9.21362 4.1871 9.319 4.23613 9.36609Z" stroke="#CC2200" stroke-linecap="round" stroke-linejoin="round"/>
<path id="Vector_36" d="M4.3629 9.74556C4.31242 9.76574 4.18551 9.62896 4.23743 9.77919C4.20282 9.79264 4.17974 9.76349 4.15234 9.73659C4.25762 9.77695 4.24897 9.50115 4.3629 9.74331L4.3629 9.74556Z" fill="#CC2200"/>
<path id="Vector_37" d="M4.1512 9.73676C4.13822 9.73233 4.12524 9.72569 4.10938 9.71021C4.12524 9.71463 4.13822 9.72569 4.1512 9.73676Z" fill="#CC2200"/>
<path id="Vector_38" d="M2.45913 9.005C2.4649 9.0455 2.45336 9.0635 2.4375 9.07475L2.45913 9.005Z" stroke="#CC2200" stroke-linecap="round" stroke-linejoin="round"/>
<path id="Vector_39" d="M4.57227 10.1781L4.62418 10.2246C4.60976 10.2113 4.5939 10.2047 4.57948 10.1958L4.57227 10.1781Z" fill="#CC2200"/>
<path id="Vector_40" d="M0 6.26099C0.085088 6.60681 0.170176 6.95264 0.439862 7.30072C0.562446 7.1425 0.556677 7.4273 0.699452 7.29168C0.64465 7.18997 0.669166 7.23518 0.736948 7.34819C0.809057 7.45668 0.918662 7.64203 1.04269 7.80703C1.28497 8.1506 1.5561 8.44218 1.48543 8.26361L1.37871 8.25683L1.55177 8.1619C1.63398 8.37437 1.70464 8.76088 1.84886 8.7541C1.84309 8.7993 1.58639 8.46252 1.35275 8.08957C1.23305 7.90875 1.12489 7.70984 1.0398 7.57422C0.959042 7.43182 0.905682 7.34593 0.905682 7.37305C0.941736 7.20579 1.2619 7.72114 1.62821 8.18676C1.99164 8.66143 2.39112 9.10444 2.43727 9.07054L2.39256 9.2152C2.64638 9.31013 2.85405 9.26041 3.05451 9.34178L3.02279 9.53842C2.92616 9.35986 2.84684 9.43219 2.69541 9.36212C2.91607 9.57007 2.91462 9.70342 3.09057 9.84582C3.17277 9.63336 2.99394 9.60171 3.24776 9.69664C3.27084 9.84582 3.03721 9.93172 3.242 10.0786C3.44678 10.3612 3.52466 10.0063 3.72945 10.1758L3.62705 9.97014C3.70205 10.0312 3.8578 10.1103 3.88376 10.2934C3.80588 10.2007 3.55062 10.1193 3.47274 10.334C3.57514 10.3702 3.73378 10.6256 3.81165 10.6867L3.70926 10.7929C3.7381 11.0099 3.86646 10.8404 3.9227 11.0641C4.05249 11.0686 3.94289 10.7929 4.01932 10.7816C4.01932 10.8517 4.18229 11.1026 4.28468 11.0619C4.35247 10.7025 4.02221 10.9579 4.015 10.5397L4.17364 10.7567C4.40006 10.5443 3.8852 10.5036 4.03663 10.3047C4.28757 10.1012 4.20104 10.8675 4.47649 10.5623C4.42025 10.4109 4.1621 10.169 4.23709 10.0854C4.28613 10.2866 4.43323 10.1216 4.576 10.1939L4.67984 10.4764C4.78079 10.4335 4.72887 10.386 4.70003 10.2753C4.86299 10.6595 5.33026 10.7703 5.58408 11.2766C5.79608 11.3964 5.65619 11.1568 5.78454 11.1184C5.82204 11.4009 6.05567 11.3896 6.16383 11.4868C6.19123 11.5275 6.3167 11.3896 6.31237 11.2834L5.9951 11.1681C6.04413 11.0777 6.06144 10.8743 5.95472 10.8155C5.89414 11.2472 5.64609 10.2617 5.48313 10.6686L5.55235 10.4787L5.16152 10.3182L5.16152 10.3521C5.18604 10.2888 4.8255 10.2369 4.6683 9.99048C4.74329 9.97692 5.03317 10.3205 4.92068 9.9498C5.09807 9.95884 5.28988 10.3454 5.57831 10.4832L5.57254 10.3114C5.90857 10.3567 6.19267 10.9059 6.51716 11.1297L6.36285 11.2269C6.44794 11.3873 6.53591 11.6518 6.69311 11.593C6.55754 11.4845 6.66138 11.4461 6.71185 11.3896C6.92674 11.4529 7.15027 11.7942 7.4214 11.9592C7.4214 11.9592 7.39544 11.9841 7.39544 12.0202C7.49495 12.0654 7.59446 12.1129 7.69397 12.1626C7.77041 12.2576 7.72137 12.253 7.71849 12.3096C7.70695 12.357 7.69397 12.418 7.68532 12.4904C7.70118 12.4723 7.71705 12.4949 7.73147 12.3683C7.73147 12.3548 7.73147 12.3412 7.72714 12.3502C7.75454 12.2485 7.75022 12.2621 7.74877 12.2915C7.74589 12.3209 7.74733 12.3661 7.75743 12.2983C7.74589 12.3977 7.73724 12.4678 7.73724 12.5469C7.73579 12.6237 7.74156 12.7119 7.73435 12.8181C7.76608 12.8046 7.76464 12.7006 7.76175 12.5966C7.75887 12.4926 7.75743 12.3887 7.76031 12.3389C7.77618 12.4881 7.80646 12.7141 7.86992 12.8362C7.8454 12.6689 7.818 12.678 7.79781 12.4994C7.81079 12.5514 7.82088 12.5514 7.81223 12.4881C7.80069 12.4361 7.7906 12.3887 7.78194 12.3435C7.79781 12.4316 7.81944 12.5062 7.83819 12.5537C7.85694 12.5785 7.8627 12.5039 7.84828 12.4135L7.82377 12.348L7.83242 12.3299C7.86271 12.4067 7.89299 12.4859 7.92183 12.5695C7.90309 12.4881 8.00115 12.6237 7.92472 12.4542L7.91462 12.4542C7.90597 12.4203 7.89732 12.3909 7.88866 12.3638C7.92183 12.4271 7.95356 12.4994 7.9824 12.5785C8.01125 12.5853 7.98096 12.4655 7.9377 12.3774C7.91607 12.3322 7.89299 12.2915 7.87424 12.2666C7.86559 12.253 7.85838 12.2417 7.85405 12.235L7.85117 12.2304C7.85117 12.2304 7.85549 12.2078 7.85694 12.1988C7.86271 12.1739 7.86847 12.1513 7.87713 12.1265C7.92616 12.1332 7.94347 12.1807 7.94491 12.2508C7.94202 12.2983 7.95068 12.296 7.95356 12.3096C7.95789 12.3209 7.95933 12.3344 7.96221 12.348C7.97375 12.4045 7.98673 12.4813 8.07759 12.6328C8.11941 12.6328 8.17854 12.5672 8.12951 12.4881C8.07038 12.4452 8.06172 12.4723 8.05451 12.5017C8.03432 12.4452 8.03144 12.4113 8.03577 12.3819C8.03577 12.3751 8.03865 12.3683 8.04153 12.3615L8.05596 12.3163C8.07182 12.2689 8.08624 12.2191 8.10066 12.1717C8.15979 11.9818 8.2045 11.801 8.13527 11.6315L7.99683 11.8394C8.05163 11.5275 8.33862 11.4958 8.23911 11.3105L8.39487 11.6902C8.36891 11.3218 8.49726 10.9534 8.4987 10.6211C8.37467 10.5239 8.38477 11.0234 8.36602 10.985L8.31266 10.7884C8.51312 10.4086 8.42515 10.7183 8.65446 10.2549L8.57225 10.1871C8.75252 10.1103 8.65157 9.46157 8.8203 9.8074L8.72512 9.90685L8.82896 9.9724C8.86646 9.75541 8.90828 9.54294 8.9501 9.32821C9.0049 9.44575 9.07701 9.14287 9.14912 9.29883L9.13326 9.01177C9.30632 9.02985 9.17075 9.5452 9.2717 9.6537C9.33949 9.6989 9.364 9.59041 9.37121 9.5339C9.39285 9.87521 9.10297 9.80288 9.01932 10.0628L9.0698 10.2617L8.94722 10.16C8.93712 10.2866 8.99192 10.4403 9.02942 10.5149C8.77992 10.6437 8.90539 11.0754 8.75541 11.4371C8.77416 11.0596 8.57514 11.5614 8.55783 11.4845C8.50303 11.6654 8.60975 12.2576 8.41506 12.3118C8.32564 12.3774 8.38189 12.0293 8.2867 12.2643C8.25786 12.4429 8.29824 12.5898 8.38621 12.5265C8.35881 12.8113 8.26507 13.0464 8.21171 13.3041C8.19585 13.2318 8.17998 13.1639 8.16268 13.0984C8.12085 13.1052 8.11508 13.182 8.1223 13.3109C8.13095 13.4374 8.1497 13.6137 8.16844 13.7697C8.14249 13.7109 8.15547 13.7833 8.13095 13.6386C8.10643 13.6115 8.09345 13.6183 8.08768 13.6522C8.0848 13.668 8.08336 13.6929 8.08336 13.7222L8.08336 13.7697C8.08336 13.7878 8.08191 13.7855 8.08047 13.7946C8.06317 13.8918 8.04153 14.0748 7.89587 13.8714C7.92616 14.1494 8.05451 14.3212 8.10643 14.2715L8.1396 14.5879C8.17998 14.6399 8.2218 14.6896 8.26363 14.7394C8.2694 14.7394 8.27805 14.7665 8.28093 14.7484L8.28815 14.71L8.30257 14.6331L8.33141 14.4749C8.35016 14.3687 8.36602 14.2579 8.38044 14.1517C8.40785 13.9347 8.43092 13.7245 8.43669 13.5369C8.45111 13.6386 8.46409 13.7471 8.47563 13.8624C8.58235 13.8624 8.56504 13.7177 8.54341 13.607C8.52466 13.4894 8.4987 13.4013 8.62561 13.3855C8.63571 13.1142 8.52754 13.451 8.51601 13.225C8.55062 13.1798 8.59965 13.2544 8.65013 13.3131C8.70061 13.3742 8.74964 13.4148 8.79146 13.2702C8.73378 13.5889 8.66888 13.9324 8.59965 14.2851C8.56504 14.4614 8.52899 14.6399 8.49438 14.8185L8.44101 15.0875L8.41361 15.2231L8.39919 15.2909C8.39919 15.2909 8.39487 15.3158 8.39198 15.3225L8.379 15.3225C8.06894 14.9541 7.73868 14.5744 7.41275 14.2444C7.39112 14.2738 7.42717 14.3303 7.46322 14.3868C7.42573 14.3958 7.36083 14.3529 7.27574 14.2715C7.23392 14.2308 7.18633 14.1833 7.13585 14.1268C7.08538 14.0748 7.02192 14.007 6.98587 13.9641C6.81569 13.7607 6.60513 13.5098 6.40035 13.2634C5.98212 12.7797 5.55812 12.3593 5.43842 12.6057C5.43409 12.5017 5.56389 12.4972 5.43121 12.3977C5.40669 12.4248 5.35622 12.4474 5.3591 12.5514C5.13124 11.9818 4.58177 11.923 4.25296 11.3873C4.22988 11.4845 4.12605 11.4552 4.10153 11.5184C4.03952 11.193 3.72801 11.2043 3.64436 10.9692L3.64725 11.1093C3.51457 10.985 3.38044 10.863 3.24921 10.7319C3.22325 10.7567 3.27661 10.811 3.30257 10.8562C3.19729 10.8178 3.22325 10.6889 3.24921 10.594C3.16123 10.6098 3.0747 10.6234 2.98673 10.6347C2.80358 10.1984 2.50361 9.94528 2.18921 9.66726C1.87626 9.3915 1.54312 9.08636 1.34266 8.59362C1.17537 8.62074 1.07009 8.57327 0.928757 8.37889L0.964811 8.52581C0.752812 8.42635 1.00375 8.44444 0.853764 8.31334C0.7182 8.27039 0.686472 8.4806 0.843669 8.58005C0.878281 8.73376 0.80473 8.71793 0.734064 8.67273C0.320162 7.95847 0.0360542 7.11312 0 6.26099Z" fill="#CC2200"/>
<path id="Vector_41" d="M14.8522 1.97541C14.7729 1.94376 14.9921 1.72225 14.8133 1.66801C14.5724 1.69061 14.3402 1.93472 14.1167 2.21952C13.8917 2.50432 13.6754 2.82528 13.423 3.00158C13.2572 3.04679 13.2283 3.08295 13.1043 3.17111C13.1173 3.19597 13.1375 3.22535 13.1591 3.2457C13.0538 3.39714 12.9284 3.70228 12.787 3.80625C12.7798 3.8831 12.8375 4.02098 12.8692 3.9057C12.7942 4.24701 12.4842 4.15886 12.4654 4.38941C12.5837 4.32612 12.4741 4.61318 12.5938 4.51146C12.4625 4.80078 12.1957 4.42557 12.0501 4.61092C12.0659 4.6516 12.0804 4.69229 12.1107 4.65612C11.8626 4.75332 11.8092 5.50374 11.5958 5.30031L11.6319 5.49922C11.5136 5.53538 11.479 5.45401 11.3665 5.61223C11.3434 5.77271 11.4444 5.69134 11.4545 5.77271C11.3492 5.73429 11.2353 6.10272 11.0535 6.12984C10.9194 5.99648 11.3463 6.04621 11.2973 5.77045C11.2742 5.73655 11.2569 5.75011 11.2396 5.77723C11.6304 5.02003 12.2592 4.86633 12.4813 4.16112C12.637 4.14303 12.6096 3.93735 12.5592 3.77009C12.4625 3.82433 12.2159 4.02776 12.3832 4.25605L12.1741 4.30352C12.1453 4.38715 11.9722 4.16564 11.9275 4.16112C12.0169 4.05036 11.9304 3.67967 11.7717 3.78817C11.939 3.40166 12.0775 4.3668 12.1972 3.99386L12.0977 3.78817C12.1323 3.93283 12.3327 3.73618 12.3457 3.58248L12.2996 3.59152C12.8 2.83884 13.3913 1.73808 13.9725 0.944709C14.1672 1.09841 14.2552 0.931148 14.3417 0.748063C14.4297 0.57176 14.5148 0.375114 14.6748 0.517513C14.7167 0.377374 14.4974 0.431621 14.6085 0.232715C14.6647 0.133261 14.7253 0.264359 14.7368 0.307305C14.7513 0.2734 14.7671 0.239496 14.783 0.203331C14.9085 0.438402 14.982 0.700597 14.9964 0.992176C15.0094 1.28375 14.9633 1.60472 14.8508 1.97541L14.8522 1.97541Z" fill="#CC2200"/>
</g>
<rect x="0.5" y="0.5" width="14" height="14.3226" stroke="#CC2200"/>
</g>
<defs>
<clipPath id="clip0_316_6125">
<rect width="15" height="15.3226" fill="white"/>
</clipPath>
</defs>
</svg>
